{"channels": 2, "id": "T0", "settings": {}, "duration": 300, "version": {"libopenshot": "0.1.9", "openshot-qt": "2.4.1"}, "height": 720, "effects": [], "scale": 25, "markers": [], "channel_layout": 3, "progress": [], "export_path": "", "clips": [{"perspective_c4_x": {"Points": [{"co": {"X": 1.0, "Y": -1.0}, "interpolation": 2}]}, "position": 0, "file_id": "TFWOSRR9O1", "volume": {"Points": [{"co": {"X": 1.0, "Y": 1.0}, "interpolation": 2}]}, "end": 68.45833333333333, "wave_color": {"green": {"Points": [{"co": {"X": 1.0, "Y": 123.0}, "handle_right": {"X": 0.5, "Y": 0.0}, "handle_left": {"X": 0.5, "Y": 1.0}, "handle_type": 0, "interpolation": 0}]}, "red": {"Points": [{"co": {"X": 1.0, "Y": 0.0}, "handle_right": {"X": 0.5, "Y": 0.0}, "handle_left": {"X": 0.5, "Y": 1.0}, "handle_type": 0, "interpolation": 0}]}, "blue": {"Points": [{"co": {"X": 1.0, "Y": 255.0}, "handle_right": {"X": 0.5, "Y": 0.0}, "handle_left": {"X": 0.5, "Y": 1.0}, "handle_type": 0, "interpolation": 0}]}, "alpha": {"Points": [{"co": {"X": 1.0, "Y": 255.0}, "handle_right": {"X": 0.5, "Y": 0.0}, "handle_left": {"X": 0.5, "Y": 1.0}, "handle_type": 0, "interpolation": 0}]}}, "duration": 68.0, "image": "../../../../../../Users/andreasziegler/.openshot_qt/thumbnail/AFAP84VNLK-22.png", "time": {"Points": [{"co": {"X": 34.0, "Y": 34.0}, "interpolation": 1}, {"co": {"X": 1643.0, "Y": 6470.0}, "interpolation": 1}]}, "crop_y": {"Points": [{"co": {"X": 1.0, "Y": 0.0}, "interpolation": 2}]}, "rotation": {"Points": [{"co": {"X": 1.0, "Y": 0.0}, "interpolation": 2}]}, "location_y": {"Points": [{"co": {"X": 1.0, "Y": 0.0}, "interpolation": 2}]}, "id": "AFAP84VNLK", "crop_width": {"Points": [{"co": {"X": 1.0, "Y": -1.0}, "interpolation": 2}]}, "location_x": {"Points": [{"co": {"X": 1.0, "Y": 0.0}, "interpolation": 2}]}, "shear_x": {"Points": [{"co": {"X": 1.0, "Y": 0.0}, "interpolation": 2}]}, "display": 0, "waveform": false, "effects": [], "perspective_c2_y": {"Points": [{"co": {"X": 1.0, "Y": -1.0}, "interpolation": 2}]}, "has_video": {"Points": [{"co": {"X": 1.0, "Y": -1.0}, "interpolation": 2}]}, "layer": 0, "crop_x": {"Points": [{"co": {"X": 1.0, "Y": 0.0}, "interpolation": 2}]}, "perspective_c3_y": {"Points": [{"co": {"X": 1.0, "Y": -1.0}, "interpolation": 2}]}, "has_audio": {"Points": [{"co": {"X": 1.0, "Y": -1.0}, "interpolation": 2}]}, "scale": 1, "title": "exp.mp4", "perspective_c3_x": {"Points": [{"co": {"X": 1.0, "Y": -1.0}, "interpolation": 2}]}, "channel_mapping": {"Points": [{"co": {"X": 1.0, "Y": -1.0}, "interpolation": 2}]}, "perspective_c4_y": {"Points": [{"co": {"X": 1.0, "Y": -1.0}, "interpolation": 2}]}, "start": 1.37, "channel_filter": {"Points": [{"co": {"X": 1.0, "Y": -1.0}, "interpolation": 2}]}, "reader": {"path": "exp.mp4", "channels": 0, "audio_bit_rate": 0, "type": "FFmpegReader", "video_bit_rate": 281441, "has_video": true, "display_ratio": {"den": 231, "num": 314}, "height": 924, "fps": {"den": 1, "num": 15}, "pixel_format": 5, "channel_layout": 4, "video_length": "4119", "top_field_first": true, "has_audio": false, "video_timebase": {"den": 1500, "num": 1}, "width": 1256, "interlaced_frame": false, "audio_timebase": {"den": 1, "num": 1}, "has_single_image": false, "pixel_ratio": {"den": 1, "num": 1}, "sample_rate": 0, "video_stream_index": 0, "acodec": "", "vcodec": "h264", "duration": 274.6000061035156, "audio_stream_index": -1, "file_size": "9660493"}, "perspective_c1_y": {"Points": [{"co": {"X": 1.0, "Y": -1.0}, "interpolation": 2}]}, "perspective_c1_x": {"Points": [{"co": {"X": 1.0, "Y": -1.0}, "interpolation": 2}]}, "shear_y": {"Points": [{"co": {"X": 1.0, "Y": 0.0}, "interpolation": 2}]}, "crop_height": {"Points": [{"co": {"X": 1.0, "Y": -1.0}, "interpolation": 2}]}, "gravity": 4, "perspective_c2_x": {"Points": [{"co": {"X": 1.0, "Y": -1.0}, "interpolation": 2}]}, "alpha": {"Points": [{"co": {"X": 1.0, "Y": 1.0}, "interpolation": 2}]}, "scale_y": {"Points": [{"co": {"X": 1.0, "Y": 1.0}, "interpolation": 2}]}, "scale_x": {"Points": [{"co": {"X": 1.0, "Y": 1.0}, "interpolation": 2}]}, "anchor": 0}, {"perspective_c4_x": {"Points": [{"co": {"X": 1.0, "Y": -1.0}, "interpolation": 2}]}, "effects": [], "position": 0, "file_id": "39OGACXNK6", "image": "../../../../../../Users/andreasziegler/.openshot_qt/thumbnail/39OGACXNK6.png", "perspective_c2_y": {"Points": [{"co": {"X": 1.0, "Y": -1.0}, "interpolation": 2}]}, "volume": {"Points": [{"co": {"X": 1.0, "Y": 1.0}, "interpolation": 2}]}, "has_video": {"Points": [{"co": {"X": 1.0, "Y": -1.0}, "interpolation": 2}]}, "start": 0, "layer": 1, "crop_x": {"Points": [{"co": {"X": 1.0, "Y": 0.0}, "interpolation": 2}]}, "perspective_c3_y": {"Points": [{"co": {"X": 1.0, "Y": -1.0}, "interpolation": 2}]}, "has_audio": {"Points": [{"co": {"X": 1.0, "Y": -1.0}, "interpolation": 2}]}, "end": 67.25, "wave_color": {"alpha": {"Points": [{"co": {"X": 1.0, "Y": 255.0}, "handle_right": {"X": 0.5, "Y": 0.0}, "handle_left": {"X": 0.5, "Y": 1.0}, "handle_type": 0, "interpolation": 0}]}, "green": {"Points": [{"co": {"X": 1.0, "Y": 123.0}, "handle_right": {"X": 0.5, "Y": 0.0}, "handle_left": {"X": 0.5, "Y": 1.0}, "handle_type": 0, "interpolation": 0}]}, "blue": {"Points": [{"co": {"X": 1.0, "Y": 255.0}, "handle_right": {"X": 0.5, "Y": 0.0}, "handle_left": {"X": 0.5, "Y": 1.0}, "handle_type": 0, "interpolation": 0}]}, "red": {"Points": [{"co": {"X": 1.0, "Y": 0.0}, "handle_right": {"X": 0.5, "Y": 0.0}, "handle_left": {"X": 0.5, "Y": 1.0}, "handle_type": 0, "interpolation": 0}]}}, "duration": 86400.0, "scale": 1, "title": "TitleFileName-1.svg", "perspective_c3_x": {"Points": [{"co": {"X": 1.0, "Y": -1.0}, "interpolation": 2}]}, "time": {"Points": [{"co": {"X": 1.0, "Y": 1.0}, "interpolation": 2}]}, "crop_y": {"Points": [{"co": {"X": 1.0, "Y": 0.0}, "interpolation": 2}]}, "channel_mapping": {"Points": [{"co": {"X": 1.0, "Y": -1.0}, "interpolation": 2}]}, "perspective_c4_y": {"Points": [{"co": {"X": 1.0, "Y": -1.0}, "interpolation": 2}]}, "rotation": {"Points": [{"co": {"X": 1.0, "Y": 0.0}, "interpolation": 2}]}, "location_y": {"Points": [{"co": {"X": 1.0, "Y": 0.0}, "interpolation": 2}]}, "id": "0LO9VIS5AD", "channel_filter": {"Points": [{"co": {"X": 1.0, "Y": -1.0}, "interpolation": 2}]}, "crop_width": {"Points": [{"co": {"X": 1.0, "Y": -1.0}, "interpolation": 2}]}, "reader": {"path": "../../../../../../Users/andreasziegler/.openshot_qt/assets/TitleFileName-1.svg", "channels": 0, "audio_bit_rate": 0, "type": "QtImageReader", "video_bit_rate": 0, "has_video": true, "display_ratio": {"den": 9, "num": 16}, "height": 1080, "fps": {"den": 1, "num": 30}, "pixel_format": -1, "channel_layout": 4, "video_length": "2592000", "top_field_first": true, "has_audio": false, "width": 1920, "video_timebase": {"den": 30, "num": 1}, "interlaced_frame": false, "audio_timebase": {"den": 1, "num": 1}, "has_single_image": true, "pixel_ratio": {"den": 1, "num": 1}, "sample_rate": 0, "video_stream_index": -1, "acodec": "", "vcodec": "", "duration": 86400.0, "audio_stream_index": -1, "file_size": "8294400"}, "perspective_c1_y": {"Points": [{"co": {"X": 1.0, "Y": -1.0}, "interpolation": 2}]}, "perspective_c1_x": {"Points": [{"co": {"X": 1.0, "Y": -1.0}, "interpolation": 2}]}, "location_x": {"Points": [{"co": {"X": 1.0, "Y": 0.0}, "interpolation": 2}]}, "shear_x": {"Points": [{"co": {"X": 1.0, "Y": 0.0}, "interpolation": 2}]}, "shear_y": {"Points": [{"co": {"X": 1.0, "Y": 0.0}, "interpolation": 2}]}, "crop_height": {"Points": [{"co": {"X": 1.0, "Y": -1.0}, "interpolation": 2}]}, "waveform": false, "gravity": 4, "perspective_c2_x": {"Points": [{"co": {"X": 1.0, "Y": -1.0}, "interpolation": 2}]}, "alpha": {"Points": [{"co": {"X": 1.0, "Y": 1.0}, "interpolation": 2}]}, "scale_y": {"Points": [{"co": {"X": 1.0, "Y": 1.0}, "interpolation": 2}]}, "scale_x": {"Points": [{"co": {"X": 1.0, "Y": 1.0}, "interpolation": 2}]}, "display": 0, "anchor": 0}], "width": 1280, "playhead_position": 0, "profile": "HDV 720 24p", "layers": [{"number": 0, "y": 0, "id": "L0", "label": "", "lock": false}, {"number": 1, "y": 0, "id": "L1", "label": "", "lock": false}], "history": {"redo": [], "undo": [{"type": "update", "key": ["scale"], "old_values": 23, "value": 25, "partial": false}, {"type": "insert", "key": ["markers"], "old_values": [], "value": {"icon": "blue.png", "id": "I6GIZIL4PY", "position": 268.0416666666667}, "partial": false}, {"type": "insert", "key": ["clips"], "old_values": [{"rotation": {"Points": [{"co": {"X": 1.0, "Y": 0.0}, "interpolation": 2}]}, "perspective_c4_x": {"Points": [{"co": {"X": 1.0, "Y": -1.0}, "interpolation": 2}]}, "location_y": {"Points": [{"co": {"X": 1.0, "Y": 0.0}, "interpolation": 2}]}, "effects": [], "position": 0, "channel_filter": {"Points": [{"co": {"X": 1.0, "Y": -1.0}, "interpolation": 2}]}, "file_id": "TFWOSRR9O1", "has_audio": {"Points": [{"co": {"X": 1.0, "Y": -1.0}, "interpolation": 2}]}, "crop_width": {"Points": [{"co": {"X": 1.0, "Y": -1.0}, "interpolation": 2}]}, "perspective_c2_y": {"Points": [{"co": {"X": 1.0, "Y": -1.0}, "interpolation": 2}]}, "perspective_c1_y": {"Points": [{"co": {"X": 1.0, "Y": -1.0}, "interpolation": 2}]}, "volume": {"Points": [{"co": {"X": 1.0, "Y": 1.0}, "interpolation": 2}]}, "has_video": {"Points": [{"co": {"X": 1.0, "Y": -1.0}, "interpolation": 2}]}, "perspective_c1_x": {"Points": [{"co": {"X": 1.0, "Y": -1.0}, "interpolation": 2}]}, "location_x": {"Points": [{"co": {"X": 1.0, "Y": 0.0}, "interpolation": 2}]}, "layer": 0, "crop_x": {"Points": [{"co": {"X": 1.0, "Y": 0.0}, "interpolation": 2}]}, "perspective_c3_y": {"Points": [{"co": {"X": 1.0, "Y": -1.0}, "interpolation": 2}]}, "shear_x": {"Points": [{"co": {"X": 1.0, "Y": 0.0}, "interpolation": 2}]}, "id": "AFAP84VNLK", "waveform": false, "shear_y": {"Points": [{"co": {"X": 1.0, "Y": 0.0}, "interpolation": 2}]}, "scale_y": {"Points": [{"co": {"X": 1.0, "Y": 1.0}, "interpolation": 2}]}, "crop_height": {"Points": [{"co": {"X": 1.0, "Y": -1.0}, "interpolation": 2}]}, "end": 274.6000061035156, "start": 1.37, "image": "/Users/andreasziegler/.openshot_qt/thumbnail/AFAP84VNLK-22.png", "crop_y": {"Points": [{"co": {"X": 1.0, "Y": 0.0}, "interpolation": 2}]}, "gravity": 4, "anchor": 0, "duration": 274.6000061035156, "perspective_c2_x": {"Points": [{"co": {"X": 1.0, "Y": -1.0}, "interpolation": 2}]}, "scale": 1, "alpha": {"Points": [{"co": {"X": 1.0, "Y": 1.0}, "interpolation": 2}]}, "title": "exp.mp4", "perspective_c3_x": {"Points": [{"co": {"X": 1.0, "Y": -1.0}, "interpolation": 2}]}, "time": {"Points": [{"co": {"X": 1.0, "Y": 1.0}, "interpolation": 2}]}, "scale_x": {"Points": [{"co": {"X": 1.0, "Y": 1.0}, "interpolation": 2}]}, "reader": {"path": "/Volumes/Data/MRfDE/presentations/Final/videos/exp.mp4", "channels": 0, "audio_bit_rate": 0, "type": "FFmpegReader", "video_bit_rate": 281441, "has_video": true, "display_ratio": {"den": 231, "num": 314}, "height": 924, "fps": {"den": 1, "num": 15}, "pixel_format": 5, "channel_layout": 4, "video_length": "4119", "top_field_first": true, "has_audio": false, "video_timebase": {"den": 1500, "num": 1}, "width": 1256, "interlaced_frame": false, "audio_timebase": {"den": 1, "num": 1}, "has_single_image": false, "pixel_ratio": {"den": 1, "num": 1}, "sample_rate": 0, "video_stream_index": 0, "acodec": "", "vcodec": "h264", "duration": 274.6000061035156, "audio_stream_index": -1, "file_size": "9660493"}, "display": 0, "channel_mapping": {"Points": [{"co": {"X": 1.0, "Y": -1.0}, "interpolation": 2}]}, "wave_color": {"green": {"Points": [{"co": {"X": 1.0, "Y": 123.0}, "handle_right": {"X": 0.5, "Y": 0.0}, "handle_left": {"X": 0.5, "Y": 1.0}, "handle_type": 0, "interpolation": 0}]}, "red": {"Points": [{"co": {"X": 1.0, "Y": 0.0}, "handle_right": {"X": 0.5, "Y": 0.0}, "handle_left": {"X": 0.5, "Y": 1.0}, "handle_type": 0, "interpolation": 0}]}, "blue": {"Points": [{"co": {"X": 1.0, "Y": 255.0}, "handle_right": {"X": 0.5, "Y": 0.0}, "handle_left": {"X": 0.5, "Y": 1.0}, "handle_type": 0, "interpolation": 0}]}, "alpha": {"Points": [{"co": {"X": 1.0, "Y": 255.0}, "handle_right": {"X": 0.5, "Y": 0.0}, "handle_left": {"X": 0.5, "Y": 1.0}, "handle_type": 0, "interpolation": 0}]}}, "perspective_c4_y": {"Points": [{"co": {"X": 1.0, "Y": -1.0}, "interpolation": 2}]}}], "value": {"rotation": {"Points": [{"co": {"X": 1.0, "Y": 0.0}, "interpolation": 2}]}, "perspective_c4_x": {"Points": [{"co": {"X": 1.0, "Y": -1.0}, "interpolation": 2}]}, "location_y": {"Points": [{"co": {"X": 1.0, "Y": 0.0}, "interpolation": 2}]}, "effects": [], "position": 268.25, "channel_filter": {"Points": [{"co": {"X": 1.0, "Y": -1.0}, "interpolation": 2}]}, "file_id": "TFWOSRR9O1", "crop_width": {"Points": [{"co": {"X": 1.0, "Y": -1.0}, "interpolation": 2}]}, "perspective_c2_y": {"Points": [{"co": {"X": 1.0, "Y": -1.0}, "interpolation": 2}]}, "perspective_c1_y": {"Points": [{"co": {"X": 1.0, "Y": -1.0}, "interpolation": 2}]}, "volume": {"Points": [{"co": {"X": 1.0, "Y": 1.0}, "interpolation": 2}]}, "has_video": {"Points": [{"co": {"X": 1.0, "Y": -1.0}, "interpolation": 2}]}, "perspective_c1_x": {"Points": [{"co": {"X": 1.0, "Y": -1.0}, "interpolation": 2}]}, "scale_x": {"Points": [{"co": {"X": 1.0, "Y": 1.0}, "interpolation": 2}]}, "wave_color": {"alpha": {"Points": [{"co": {"X": 1.0, "Y": 255.0}, "handle_right": {"X": 0.5, "Y": 0.0}, "handle_left": {"X": 0.5, "Y": 1.0}, "handle_type": 0, "interpolation": 0}]}, "green": {"Points": [{"co": {"X": 1.0, "Y": 123.0}, "handle_right": {"X": 0.5, "Y": 0.0}, "handle_left": {"X": 0.5, "Y": 1.0}, "handle_type": 0, "interpolation": 0}]}, "blue": {"Points": [{"co": {"X": 1.0, "Y": 255.0}, "handle_right": {"X": 0.5, "Y": 0.0}, "handle_left": {"X": 0.5, "Y": 1.0}, "handle_type": 0, "interpolation": 0}]}, "red": {"Points": [{"co": {"X": 1.0, "Y": 0.0}, "handle_right": {"X": 0.5, "Y": 0.0}, "handle_left": {"X": 0.5, "Y": 1.0}, "handle_type": 0, "interpolation": 0}]}}, "location_x": {"Points": [{"co": {"X": 1.0, "Y": 0.0}, "interpolation": 2}]}, "layer": 0, "title": "exp.mp4", "scale_y": {"Points": [{"co": {"X": 1.0, "Y": 1.0}, "interpolation": 2}]}, "crop_x": {"Points": [{"co": {"X": 1.0, "Y": 0.0}, "interpolation": 2}]}, "perspective_c3_y": {"Points": [{"co": {"X": 1.0, "Y": -1.0}, "interpolation": 2}]}, "shear_x": {"Points": [{"co": {"X": 1.0, "Y": 0.0}, "interpolation": 2}]}, "id": "BHA47M8LFC", "shear_y": {"Points": [{"co": {"X": 1.0, "Y": 0.0}, "interpolation": 2}]}, "has_audio": {"Points": [{"co": {"X": 1.0, "Y": -1.0}, "interpolation": 2}]}, "crop_height": {"Points": [{"co": {"X": 1.0, "Y": -1.0}, "interpolation": 2}]}, "end": 273.87, "gravity": 4, "start": 269.62, "anchor": 0, "duration": 274.6000061035156, "perspective_c2_x": {"Points": [{"co": {"X": 1.0, "Y": -1.0}, "interpolation": 2}]}, "scale": 1, "alpha": {"Points": [{"co": {"X": 1.0, "Y": 1.0}, "interpolation": 2}]}, "image": "/Users/andreasziegler/.openshot_qt/thumbnail/BHA47M8LFC-4045.png", "perspective_c3_x": {"Points": [{"co": {"X": 1.0, "Y": -1.0}, "interpolation": 2}]}, "time": {"Points": [{"co": {"X": 1.0, "Y": 1.0}, "interpolation": 2}]}, "crop_y": {"Points": [{"co": {"X": 1.0, "Y": 0.0}, "interpolation": 2}]}, "reader": {"path": "/Volumes/Data/MRfDE/presentations/Final/videos/exp.mp4", "channels": 0, "audio_bit_rate": 0, "type": "FFmpegReader", "has_video": true, "display_ratio": {"den": 231, "num": 314}, "height": 924, "fps": {"den": 1, "num": 15}, "pixel_format": 5, "channel_layout": 4, "video_stream_index": 0, "video_length": "4119", "top_field_first": true, "has_audio": false, "video_timebase": {"den": 1500, "num": 1}, "width": 1256, "interlaced_frame": false, "audio_timebase": {"den": 1, "num": 1}, "has_single_image": false, "pixel_ratio": {"den": 1, "num": 1}, "sample_rate": 0, "video_bit_rate": 281441, "acodec": "", "vcodec": "h264", "duration": 274.6000061035156, "audio_stream_index": -1, "file_size": "9660493"}, "display": 0, "channel_mapping": {"Points": [{"co": {"X": 1.0, "Y": -1.0}, "interpolation": 2}]}, "waveform": false, "perspective_c4_y": {"Points": [{"co": {"X": 1.0, "Y": -1.0}, "interpolation": 2}]}}, "partial": false}, {"type": "update", "key": ["clips", {"id": "BHA47M8LFC"}], "old_values": {"rotation": {"Points": [{"co": {"X": 1.0, "Y": 0.0}, "interpolation": 2}]}, "perspective_c4_x": {"Points": [{"co": {"X": 1.0, "Y": -1.0}, "interpolation": 2}]}, "location_y": {"Points": [{"co": {"X": 1.0, "Y": 0.0}, "interpolation": 2}]}, "effects": [], "position": 268.25, "channel_filter": {"Points": [{"co": {"X": 1.0, "Y": -1.0}, "interpolation": 2}]}, "file_id": "TFWOSRR9O1", "crop_width": {"Points": [{"co": {"X": 1.0, "Y": -1.0}, "interpolation": 2}]}, "perspective_c2_y": {"Points": [{"co": {"X": 1.0, "Y": -1.0}, "interpolation": 2}]}, "perspective_c1_y": {"Points": [{"co": {"X": 1.0, "Y": -1.0}, "interpolation": 2}]}, "volume": {"Points": [{"co": {"X": 1.0, "Y": 1.0}, "interpolation": 2}]}, "has_video": {"Points": [{"co": {"X": 1.0, "Y": -1.0}, "interpolation": 2}]}, "perspective_c1_x": {"Points": [{"co": {"X": 1.0, "Y": -1.0}, "interpolation": 2}]}, "location_x": {"Points": [{"co": {"X": 1.0, "Y": 0.0}, "interpolation": 2}]}, "layer": 0, "title": "exp.mp4", "scale_y": {"Points": [{"co": {"X": 1.0, "Y": 1.0}, "interpolation": 2}]}, "crop_x": {"Points": [{"co": {"X": 1.0, "Y": 0.0}, "interpolation": 2}]}, "perspective_c3_y": {"Points": [{"co": {"X": 1.0, "Y": -1.0}, "interpolation": 2}]}, "shear_x": {"Points": [{"co": {"X": 1.0, "Y": 0.0}, "interpolation": 2}]}, "id": "BHA47M8LFC", "shear_y": {"Points": [{"co": {"X": 1.0, "Y": 0.0}, "interpolation": 2}]}, "has_audio": {"Points": [{"co": {"X": 1.0, "Y": -1.0}, "interpolation": 2}]}, "crop_height": {"Points": [{"co": {"X": 1.0, "Y": -1.0}, "interpolation": 2}]}, "end": 274.6000061035156, "start": 269.62, "waveform": false, "crop_y": {"Points": [{"co": {"X": 1.0, "Y": 0.0}, "interpolation": 2}]}, "wave_color": {"green": {"Points": [{"co": {"X": 1.0, "Y": 123.0}, "handle_right": {"X": 0.5, "Y": 0.0}, "handle_left": {"X": 0.5, "Y": 1.0}, "handle_type": 0, "interpolation": 0}]}, "red": {"Points": [{"co": {"X": 1.0, "Y": 0.0}, "handle_right": {"X": 0.5, "Y": 0.0}, "handle_left": {"X": 0.5, "Y": 1.0}, "handle_type": 0, "interpolation": 0}]}, "blue": {"Points": [{"co": {"X": 1.0, "Y": 255.0}, "handle_right": {"X": 0.5, "Y": 0.0}, "handle_left": {"X": 0.5, "Y": 1.0}, "handle_type": 0, "interpolation": 0}]}, "alpha": {"Points": [{"co": {"X": 1.0, "Y": 255.0}, "handle_right": {"X": 0.5, "Y": 0.0}, "handle_left": {"X": 0.5, "Y": 1.0}, "handle_type": 0, "interpolation": 0}]}}, "anchor": 0, "duration": 274.6000061035156, "perspective_c2_x": {"Points": [{"co": {"X": 1.0, "Y": -1.0}, "interpolation": 2}]}, "scale": 1, "alpha": {"Points": [{"co": {"X": 1.0, "Y": 1.0}, "interpolation": 2}]}, "image": "/Users/andreasziegler/.openshot_qt/thumbnail/AFAP84VNLK-22.png", "perspective_c3_x": {"Points": [{"co": {"X": 1.0, "Y": -1.0}, "interpolation": 2}]}, "time": {"Points": [{"co": {"X": 1.0, "Y": 1.0}, "interpolation": 2}]}, "scale_x": {"Points": [{"co": {"X": 1.0, "Y": 1.0}, "interpolation": 2}]}, "reader": {"path": "/Volumes/Data/MRfDE/presentations/Final/videos/exp.mp4", "channels": 0, "audio_bit_rate": 0, "type": "FFmpegReader", "video_bit_rate": 281441, "has_video": true, "display_ratio": {"den": 231, "num": 314}, "height": 924, "fps": {"den": 1, "num": 15}, "pixel_format": 5, "channel_layout": 4, "video_length": "4119", "top_field_first": true, "has_audio": false, "video_timebase": {"den": 1500, "num": 1}, "width": 1256, "interlaced_frame": false, "audio_timebase": {"den": 1, "num": 1}, "has_single_image": false, "pixel_ratio": {"den": 1, "num": 1}, "sample_rate": 0, "video_stream_index": 0, "acodec": "", "vcodec": "h264", "duration": 274.6000061035156, "audio_stream_index": -1, "file_size": "9660493"}, "display": 0, "channel_mapping": {"Points": [{"co": {"X": 1.0, "Y": -1.0}, "interpolation": 2}]}, "gravity": 4, "perspective_c4_y": {"Points": [{"co": {"X": 1.0, "Y": -1.0}, "interpolation": 2}]}}, "value": {"rotation": {"Points": [{"co": {"X": 1.0, "Y": 0.0}, "interpolation": 2}]}, "perspective_c4_x": {"Points": [{"co": {"X": 1.0, "Y": -1.0}, "interpolation": 2}]}, "location_y": {"Points": [{"co": {"X": 1.0, "Y": 0.0}, "interpolation": 2}]}, "effects": [], "position": 268.25, "channel_filter": {"Points": [{"co": {"X": 1.0, "Y": -1.0}, "interpolation": 2}]}, "file_id": "TFWOSRR9O1", "has_audio": {"Points": [{"co": {"X": 1.0, "Y": -1.0}, "interpolation": 2}]}, "crop_width": {"Points": [{"co": {"X": 1.0, "Y": -1.0}, "interpolation": 2}]}, "perspective_c2_y": {"Points": [{"co": {"X": 1.0, "Y": -1.0}, "interpolation": 2}]}, "perspective_c1_y": {"Points": [{"co": {"X": 1.0, "Y": -1.0}, "interpolation": 2}]}, "volume": {"Points": [{"co": {"X": 1.0, "Y": 1.0}, "interpolation": 2}]}, "has_video": {"Points": [{"co": {"X": 1.0, "Y": -1.0}, "interpolation": 2}]}, "perspective_c1_x": {"Points": [{"co": {"X": 1.0, "Y": -1.0}, "interpolation": 2}]}, "location_x": {"Points": [{"co": {"X": 1.0, "Y": 0.0}, "interpolation": 2}]}, "layer": 0, "crop_x": {"Points": [{"co": {"X": 1.0, "Y": 0.0}, "interpolation": 2}]}, "perspective_c3_y": {"Points": [{"co": {"X": 1.0, "Y": -1.0}, "interpolation": 2}]}, "shear_x": {"Points": [{"co": {"X": 1.0, "Y": 0.0}, "interpolation": 2}]}, "id": "BHA47M8LFC", "waveform": false, "shear_y": {"Points": [{"co": {"X": 1.0, "Y": 0.0}, "interpolation": 2}]}, "scale_y": {"Points": [{"co": {"X": 1.0, "Y": 1.0}, "interpolation": 2}]}, "crop_height": {"Points": [{"co": {"X": 1.0, "Y": -1.0}, "interpolation": 2}]}, "end": 274.6000061035156, "start": 269.62, "image": "/Users/andreasziegler/.openshot_qt/thumbnail/BHA47M8LFC-4045.png", "crop_y": {"Points": [{"co": {"X": 1.0, "Y": 0.0}, "interpolation": 2}]}, "gravity": 4, "anchor": 0, "duration": 274.6000061035156, "perspective_c2_x": {"Points": [{"co": {"X": 1.0, "Y": -1.0}, "interpolation": 2}]}, "scale": 1, "alpha": {"Points": [{"co": {"X": 1.0, "Y": 1.0}, "interpolation": 2}]}, "title": "exp.mp4", "perspective_c3_x": {"Points": [{"co": {"X": 1.0, "Y": -1.0}, "interpolation": 2}]}, "time": {"Points": [{"co": {"X": 1.0, "Y": 1.0}, "interpolation": 2}]}, "scale_x": {"Points": [{"co": {"X": 1.0, "Y": 1.0}, "interpolation": 2}]}, "display": 0, "channel_mapping": {"Points": [{"co": {"X": 1.0, "Y": -1.0}, "interpolation": 2}]}, "wave_color": {"green": {"Points": [{"co": {"X": 1.0, "Y": 123.0}, "handle_right": {"X": 0.5, "Y": 0.0}, "handle_left": {"X": 0.5, "Y": 1.0}, "handle_type": 0, "interpolation": 0}]}, "red": {"Points": [{"co": {"X": 1.0, "Y": 0.0}, "handle_right": {"X": 0.5, "Y": 0.0}, "handle_left": {"X": 0.5, "Y": 1.0}, "handle_type": 0, "interpolation": 0}]}, "blue": {"Points": [{"co": {"X": 1.0, "Y": 255.0}, "handle_right": {"X": 0.5, "Y": 0.0}, "handle_left": {"X": 0.5, "Y": 1.0}, "handle_type": 0, "interpolation": 0}]}, "alpha": {"Points": [{"co": {"X": 1.0, "Y": 255.0}, "handle_right": {"X": 0.5, "Y": 0.0}, "handle_left": {"X": 0.5, "Y": 1.0}, "handle_type": 0, "interpolation": 0}]}}, "perspective_c4_y": {"Points": [{"co": {"X": 1.0, "Y": -1.0}, "interpolation": 2}]}}, "partial": false}, {"type": "update", "key": ["clips", {"id": "AFAP84VNLK"}], "old_values": {"rotation": {"Points": [{"co": {"X": 1.0, "Y": 0.0}, "interpolation": 2}]}, "perspective_c4_x": {"Points": [{"co": {"X": 1.0, "Y": -1.0}, "interpolation": 2}]}, "location_y": {"Points": [{"co": {"X": 1.0, "Y": 0.0}, "interpolation": 2}]}, "effects": [], "position": 0, "channel_filter": {"Points": [{"co": {"X": 1.0, "Y": -1.0}, "interpolation": 2}]}, "file_id": "TFWOSRR9O1", "has_audio": {"Points": [{"co": {"X": 1.0, "Y": -1.0}, "interpolation": 2}]}, "crop_width": {"Points": [{"co": {"X": 1.0, "Y": -1.0}, "interpolation": 2}]}, "perspective_c2_y": {"Points": [{"co": {"X": 1.0, "Y": -1.0}, "interpolation": 2}]}, "perspective_c1_y": {"Points": [{"co": {"X": 1.0, "Y": -1.0}, "interpolation": 2}]}, "volume": {"Points": [{"co": {"X": 1.0, "Y": 1.0}, "interpolation": 2}]}, "has_video": {"Points": [{"co": {"X": 1.0, "Y": -1.0}, "interpolation": 2}]}, "perspective_c1_x": {"Points": [{"co": {"X": 1.0, "Y": -1.0}, "interpolation": 2}]}, "location_x": {"Points": [{"co": {"X": 1.0, "Y": 0.0}, "interpolation": 2}]}, "layer": 0, "crop_x": {"Points": [{"co": {"X": 1.0, "Y": 0.0}, "interpolation": 2}]}, "perspective_c3_y": {"Points": [{"co": {"X": 1.0, "Y": -1.0}, "interpolation": 2}]}, "shear_x": {"Points": [{"co": {"X": 1.0, "Y": 0.0}, "interpolation": 2}]}, "id": "AFAP84VNLK", "waveform": false, "shear_y": {"Points": [{"co": {"X": 1.0, "Y": 0.0}, "interpolation": 2}]}, "scale_y": {"Points": [{"co": {"X": 1.0, "Y": 1.0}, "interpolation": 2}]}, "crop_height": {"Points": [{"co": {"X": 1.0, "Y": -1.0}, "interpolation": 2}]}, "end": 274.6000061035156, "start": 1.37, "image": "/Users/andreasziegler/.openshot_qt/thumbnail/AFAP84VNLK-22.png", "crop_y": {"Points": [{"co": {"X": 1.0, "Y": 0.0}, "interpolation": 2}]}, "gravity": 4, "anchor": 0, "duration": 274.6000061035156, "perspective_c2_x": {"Points": [{"co": {"X": 1.0, "Y": -1.0}, "interpolation": 2}]}, "scale": 1, "alpha": {"Points": [{"co": {"X": 1.0, "Y": 1.0}, "interpolation": 2}]}, "title": "exp.mp4", "perspective_c3_x": {"Points": [{"co": {"X": 1.0, "Y": -1.0}, "interpolation": 2}]}, "time": {"Points": [{"co": {"X": 1.0, "Y": 1.0}, "interpolation": 2}]}, "scale_x": {"Points": [{"co": {"X": 1.0, "Y": 1.0}, "interpolation": 2}]}, "reader": {"path": "/Volumes/Data/MRfDE/presentations/Final/videos/exp.mp4", "channels": 0, "audio_bit_rate": 0, "type": "FFmpegReader", "video_bit_rate": 281441, "has_video": true, "display_ratio": {"den": 231, "num": 314}, "height": 924, "fps": {"den": 1, "num": 15}, "pixel_format": 5, "channel_layout": 4, "video_length": "4119", "top_field_first": true, "has_audio": false, "video_timebase": {"den": 1500, "num": 1}, "width": 1256, "interlaced_frame": false, "audio_timebase": {"den": 1, "num": 1}, "has_single_image": false, "pixel_ratio": {"den": 1, "num": 1}, "sample_rate": 0, "video_stream_index": 0, "acodec": "", "vcodec": "h264", "duration": 274.6000061035156, "audio_stream_index": -1, "file_size": "9660493"}, "display": 0, "channel_mapping": {"Points": [{"co": {"X": 1.0, "Y": -1.0}, "interpolation": 2}]}, "wave_color": {"green": {"Points": [{"co": {"X": 1.0, "Y": 123.0}, "handle_right": {"X": 0.5, "Y": 0.0}, "handle_left": {"X": 0.5, "Y": 1.0}, "handle_type": 0, "interpolation": 0}]}, "red": {"Points": [{"co": {"X": 1.0, "Y": 0.0}, "handle_right": {"X": 0.5, "Y": 0.0}, "handle_left": {"X": 0.5, "Y": 1.0}, "handle_type": 0, "interpolation": 0}]}, "blue": {"Points": [{"co": {"X": 1.0, "Y": 255.0}, "handle_right": {"X": 0.5, "Y": 0.0}, "handle_left": {"X": 0.5, "Y": 1.0}, "handle_type": 0, "interpolation": 0}]}, "alpha": {"Points": [{"co": {"X": 1.0, "Y": 255.0}, "handle_right": {"X": 0.5, "Y": 0.0}, "handle_left": {"X": 0.5, "Y": 1.0}, "handle_type": 0, "interpolation": 0}]}}, "perspective_c4_y": {"Points": [{"co": {"X": 1.0, "Y": -1.0}, "interpolation": 2}]}}, "value": {"rotation": {"Points": [{"co": {"X": 1.0, "Y": 0.0}, "interpolation": 2}]}, "perspective_c4_x": {"Points": [{"co": {"X": 1.0, "Y": -1.0}, "interpolation": 2}]}, "location_y": {"Points": [{"co": {"X": 1.0, "Y": 0.0}, "interpolation": 2}]}, "effects": [], "position": 0, "channel_filter": {"Points": [{"co": {"X": 1.0, "Y": -1.0}, "interpolation": 2}]}, "file_id": "TFWOSRR9O1", "has_audio": {"Points": [{"co": {"X": 1.0, "Y": -1.0}, "interpolation": 2}]}, "crop_width": {"Points": [{"co": {"X": 1.0, "Y": -1.0}, "interpolation": 2}]}, "perspective_c2_y": {"Points": [{"co": {"X": 1.0, "Y": -1.0}, "interpolation": 2}]}, "perspective_c1_y": {"Points": [{"co": {"X": 1.0, "Y": -1.0}, "interpolation": 2}]}, "volume": {"Points": [{"co": {"X": 1.0, "Y": 1.0}, "interpolation": 2}]}, "has_video": {"Points": [{"co": {"X": 1.0, "Y": -1.0}, "interpolation": 2}]}, "perspective_c1_x": {"Points": [{"co": {"X": 1.0, "Y": -1.0}, "interpolation": 2}]}, "location_x": {"Points": [{"co": {"X": 1.0, "Y": 0.0}, "interpolation": 2}]}, "layer": 0, "crop_x": {"Points": [{"co": {"X": 1.0, "Y": 0.0}, "interpolation": 2}]}, "perspective_c3_y": {"Points": [{"co": {"X": 1.0, "Y": -1.0}, "interpolation": 2}]}, "shear_x": {"Points": [{"co": {"X": 1.0, "Y": 0.0}, "interpolation": 2}]}, "id": "AFAP84VNLK", "waveform": false, "shear_y": {"Points": [{"co": {"X": 1.0, "Y": 0.0}, "interpolation": 2}]}, "scale_y": {"Points": [{"co": {"X": 1.0, "Y": 1.0}, "interpolation": 2}]}, "crop_height": {"Points": [{"co": {"X": 1.0, "Y": -1.0}, "interpolation": 2}]}, "end": 269.62, "start": 1.37, "image": "/Users/andreasziegler/.openshot_qt/thumbnail/AFAP84VNLK-22.png", "crop_y": {"Points": [{"co": {"X": 1.0, "Y": 0.0}, "interpolation": 2}]}, "gravity": 4, "anchor": 0, "duration": 274.6000061035156, "perspective_c2_x": {"Points": [{"co": {"X": 1.0, "Y": -1.0}, "interpolation": 2}]}, "scale": 1, "alpha": {"Points": [{"co": {"X": 1.0, "Y": 1.0}, "interpolation": 2}]}, "title": "exp.mp4", "perspective_c3_x": {"Points": [{"co": {"X": 1.0, "Y": -1.0}, "interpolation": 2}]}, "time": {"Points": [{"co": {"X": 1.0, "Y": 1.0}, "interpolation": 2}]}, "scale_x": {"Points": [{"co": {"X": 1.0, "Y": 1.0}, "interpolation": 2}]}, "display": 0, "channel_mapping": {"Points": [{"co": {"X": 1.0, "Y": -1.0}, "interpolation": 2}]}, "wave_color": {"green": {"Points": [{"co": {"X": 1.0, "Y": 123.0}, "handle_right": {"X": 0.5, "Y": 0.0}, "handle_left": {"X": 0.5, "Y": 1.0}, "handle_type": 0, "interpolation": 0}]}, "red": {"Points": [{"co": {"X": 1.0, "Y": 0.0}, "handle_right": {"X": 0.5, "Y": 0.0}, "handle_left": {"X": 0.5, "Y": 1.0}, "handle_type": 0, "interpolation": 0}]}, "blue": {"Points": [{"co": {"X": 1.0, "Y": 255.0}, "handle_right": {"X": 0.5, "Y": 0.0}, "handle_left": {"X": 0.5, "Y": 1.0}, "handle_type": 0, "interpolation": 0}]}, "alpha": {"Points": [{"co": {"X": 1.0, "Y": 255.0}, "handle_right": {"X": 0.5, "Y": 0.0}, "handle_left": {"X": 0.5, "Y": 1.0}, "handle_type": 0, "interpolation": 0}]}}, "perspective_c4_y": {"Points": [{"co": {"X": 1.0, "Y": -1.0}, "interpolation": 2}]}}, "partial": false}, {"type": "insert", "key": ["clips"], "old_values": [{"rotation": {"Points": [{"co": {"X": 1.0, "Y": 0.0}, "interpolation": 2}]}, "perspective_c4_x": {"Points": [{"co": {"X": 1.0, "Y": -1.0}, "interpolation": 2}]}, "location_y": {"Points": [{"co": {"X": 1.0, "Y": 0.0}, "interpolation": 2}]}, "effects": [], "position": 0, "channel_filter": {"Points": [{"co": {"X": 1.0, "Y": -1.0}, "interpolation": 2}]}, "file_id": "TFWOSRR9O1", "has_audio": {"Points": [{"co": {"X": 1.0, "Y": -1.0}, "interpolation": 2}]}, "crop_width": {"Points": [{"co": {"X": 1.0, "Y": -1.0}, "interpolation": 2}]}, "perspective_c2_y": {"Points": [{"co": {"X": 1.0, "Y": -1.0}, "interpolation": 2}]}, "perspective_c1_y": {"Points": [{"co": {"X": 1.0, "Y": -1.0}, "interpolation": 2}]}, "volume": {"Points": [{"co": {"X": 1.0, "Y": 1.0}, "interpolation": 2}]}, "has_video": {"Points": [{"co": {"X": 1.0, "Y": -1.0}, "interpolation": 2}]}, "perspective_c1_x": {"Points": [{"co": {"X": 1.0, "Y": -1.0}, "interpolation": 2}]}, "location_x": {"Points": [{"co": {"X": 1.0, "Y": 0.0}, "interpolation": 2}]}, "layer": 0, "crop_x": {"Points": [{"co": {"X": 1.0, "Y": 0.0}, "interpolation": 2}]}, "perspective_c3_y": {"Points": [{"co": {"X": 1.0, "Y": -1.0}, "interpolation": 2}]}, "shear_x": {"Points": [{"co": {"X": 1.0, "Y": 0.0}, "interpolation": 2}]}, "id": "AFAP84VNLK", "waveform": false, "shear_y": {"Points": [{"co": {"X": 1.0, "Y": 0.0}, "interpolation": 2}]}, "scale_y": {"Points": [{"co": {"X": 1.0, "Y": 1.0}, "interpolation": 2}]}, "crop_height": {"Points": [{"co": {"X": 1.0, "Y": -1.0}, "interpolation": 2}]}, "end": 269.62, "start": 1.37, "image": "/Users/andreasziegler/.openshot_qt/thumbnail/AFAP84VNLK-22.png", "crop_y": {"Points": [{"co": {"X": 1.0, "Y": 0.0}, "interpolation": 2}]}, "gravity": 4, "anchor": 0, "duration": 274.6000061035156, "perspective_c2_x": {"Points": [{"co": {"X": 1.0, "Y": -1.0}, "interpolation": 2}]}, "scale": 1, "alpha": {"Points": [{"co": {"X": 1.0, "Y": 1.0}, "interpolation": 2}]}, "title": "exp.mp4", "perspective_c3_x": {"Points": [{"co": {"X": 1.0, "Y": -1.0}, "interpolation": 2}]}, "time": {"Points": [{"co": {"X": 1.0, "Y": 1.0}, "interpolation": 2}]}, "scale_x": {"Points": [{"co": {"X": 1.0, "Y": 1.0}, "interpolation": 2}]}, "reader": {"path": "/Volumes/Data/MRfDE/presentations/Final/videos/exp.mp4", "channels": 0, "audio_bit_rate": 0, "type": "FFmpegReader", "video_bit_rate": 281441, "has_video": true, "display_ratio": {"den": 231, "num": 314}, "height": 924, "fps": {"den": 1, "num": 15}, "pixel_format": 5, "channel_layout": 4, "video_length": "4119", "top_field_first": true, "has_audio": false, "video_timebase": {"den": 1500, "num": 1}, "width": 1256, "interlaced_frame": false, "audio_timebase": {"den": 1, "num": 1}, "has_single_image": false, "pixel_ratio": {"den": 1, "num": 1}, "sample_rate": 0, "video_stream_index": 0, "acodec": "", "vcodec": "h264", "duration": 274.6000061035156, "audio_stream_index": -1, "file_size": "9660493"}, "display": 0, "channel_mapping": {"Points": [{"co": {"X": 1.0, "Y": -1.0}, "interpolation": 2}]}, "wave_color": {"alpha": {"Points": [{"co": {"X": 1.0, "Y": 255.0}, "handle_right": {"X": 0.5, "Y": 0.0}, "handle_left": {"X": 0.5, "Y": 1.0}, "handle_type": 0, "interpolation": 0}]}, "green": {"Points": [{"co": {"X": 1.0, "Y": 123.0}, "handle_right": {"X": 0.5, "Y": 0.0}, "handle_left": {"X": 0.5, "Y": 1.0}, "handle_type": 0, "interpolation": 0}]}, "blue": {"Points": [{"co": {"X": 1.0, "Y": 255.0}, "handle_right": {"X": 0.5, "Y": 0.0}, "handle_left": {"X": 0.5, "Y": 1.0}, "handle_type": 0, "interpolation": 0}]}, "red": {"Points": [{"co": {"X": 1.0, "Y": 0.0}, "handle_right": {"X": 0.5, "Y": 0.0}, "handle_left": {"X": 0.5, "Y": 1.0}, "handle_type": 0, "interpolation": 0}]}}, "perspective_c4_y": {"Points": [{"co": {"X": 1.0, "Y": -1.0}, "interpolation": 2}]}}, {"rotation": {"Points": [{"co": {"X": 1.0, "Y": 0.0}, "interpolation": 2}]}, "perspective_c4_x": {"Points": [{"co": {"X": 1.0, "Y": -1.0}, "interpolation": 2}]}, "location_y": {"Points": [{"co": {"X": 1.0, "Y": 0.0}, "interpolation": 2}]}, "effects": [], "position": 268.25, "channel_filter": {"Points": [{"co": {"X": 1.0, "Y": -1.0}, "interpolation": 2}]}, "file_id": "TFWOSRR9O1", "has_audio": {"Points": [{"co": {"X": 1.0, "Y": -1.0}, "interpolation": 2}]}, "crop_width": {"Points": [{"co": {"X": 1.0, "Y": -1.0}, "interpolation": 2}]}, "perspective_c2_y": {"Points": [{"co": {"X": 1.0, "Y": -1.0}, "interpolation": 2}]}, "perspective_c1_y": {"Points": [{"co": {"X": 1.0, "Y": -1.0}, "interpolation": 2}]}, "volume": {"Points": [{"co": {"X": 1.0, "Y": 1.0}, "interpolation": 2}]}, "has_video": {"Points": [{"co": {"X": 1.0, "Y": -1.0}, "interpolation": 2}]}, "perspective_c1_x": {"Points": [{"co": {"X": 1.0, "Y": -1.0}, "interpolation": 2}]}, "location_x": {"Points": [{"co": {"X": 1.0, "Y": 0.0}, "interpolation": 2}]}, "layer": 0, "crop_x": {"Points": [{"co": {"X": 1.0, "Y": 0.0}, "interpolation": 2}]}, "perspective_c3_y": {"Points": [{"co": {"X": 1.0, "Y": -1.0}, "interpolation": 2}]}, "shear_x": {"Points": [{"co": {"X": 1.0, "Y": 0.0}, "interpolation": 2}]}, "id": "BHA47M8LFC", "waveform": false, "shear_y": {"Points": [{"co": {"X": 1.0, "Y": 0.0}, "interpolation": 2}]}, "scale_y": {"Points": [{"co": {"X": 1.0, "Y": 1.0}, "interpolation": 2}]}, "crop_height": {"Points": [{"co": {"X": 1.0, "Y": -1.0}, "interpolation": 2}]}, "end": 274.6000061035156, "start": 269.62, "image": "/Users/andreasziegler/.openshot_qt/thumbnail/BHA47M8LFC-4045.png", "crop_y": {"Points": [{"co": {"X": 1.0, "Y": 0.0}, "interpolation": 2}]}, "wave_color": {"alpha": {"Points": [{"co": {"X": 1.0, "Y": 255.0}, "handle_right": {"X": 0.5, "Y": 0.0}, "handle_left": {"X": 0.5, "Y": 1.0}, "handle_type": 0, "interpolation": 0}]}, "green": {"Points": [{"co": {"X": 1.0, "Y": 123.0}, "handle_right": {"X": 0.5, "Y": 0.0}, "handle_left": {"X": 0.5, "Y": 1.0}, "handle_type": 0, "interpolation": 0}]}, "blue": {"Points": [{"co": {"X": 1.0, "Y": 255.0}, "handle_right": {"X": 0.5, "Y": 0.0}, "handle_left": {"X": 0.5, "Y": 1.0}, "handle_type": 0, "interpolation": 0}]}, "red": {"Points": [{"co": {"X": 1.0, "Y": 0.0}, "handle_right": {"X": 0.5, "Y": 0.0}, "handle_left": {"X": 0.5, "Y": 1.0}, "handle_type": 0, "interpolation": 0}]}}, "anchor": 0, "duration": 274.6000061035156, "perspective_c2_x": {"Points": [{"co": {"X": 1.0, "Y": -1.0}, "interpolation": 2}]}, "scale": 1, "alpha": {"Points": [{"co": {"X": 1.0, "Y": 1.0}, "interpolation": 2}]}, "title": "exp.mp4", "perspective_c3_x": {"Points": [{"co": {"X": 1.0, "Y": -1.0}, "interpolation": 2}]}, "time": {"Points": [{"co": {"X": 1.0, "Y": 1.0}, "interpolation": 2}]}, "scale_x": {"Points": [{"co": {"X": 1.0, "Y": 1.0}, "interpolation": 2}]}, "reader": {"path": "/Volumes/Data/MRfDE/presentations/Final/videos/exp.mp4", "channels": 0, "audio_bit_rate": 0, "type": "FFmpegReader", "video_bit_rate": 281441, "has_video": true, "display_ratio": {"den": 231, "num": 314}, "height": 924, "fps": {"den": 1, "num": 15}, "pixel_format": 5, "channel_layout": 4, "video_length": "4119", "top_field_first": true, "has_audio": false, "video_timebase": {"den": 1500, "num": 1}, "width": 1256, "interlaced_frame": false, "audio_timebase": {"den": 1, "num": 1}, "has_single_image": false, "pixel_ratio": {"den": 1, "num": 1}, "sample_rate": 0, "video_stream_index": 0, "acodec": "", "vcodec": "h264", "duration": 274.6000061035156, "audio_stream_index": -1, "file_size": "9660493"}, "display": 0, "channel_mapping": {"Points": [{"co": {"X": 1.0, "Y": -1.0}, "interpolation": 2}]}, "gravity": 4, "perspective_c4_y": {"Points": [{"co": {"X": 1.0, "Y": -1.0}, "interpolation": 2}]}}], "value": {"rotation": {"Points": [{"co": {"X": 1.0, "Y": 0.0}, "interpolation": 2}]}, "perspective_c4_x": {"Points": [{"co": {"X": 1.0, "Y": -1.0}, "interpolation": 2}]}, "location_y": {"Points": [{"co": {"X": 1.0, "Y": 0.0}, "interpolation": 2}]}, "effects": [], "position": 272.5, "channel_filter": {"Points": [{"co": {"X": 1.0, "Y": -1.0}, "interpolation": 2}]}, "file_id": "TFWOSRR9O1", "crop_width": {"Points": [{"co": {"X": 1.0, "Y": -1.0}, "interpolation": 2}]}, "perspective_c2_y": {"Points": [{"co": {"X": 1.0, "Y": -1.0}, "interpolation": 2}]}, "perspective_c1_y": {"Points": [{"co": {"X": 1.0, "Y": -1.0}, "interpolation": 2}]}, "volume": {"Points": [{"co": {"X": 1.0, "Y": 1.0}, "interpolation": 2}]}, "has_video": {"Points": [{"co": {"X": 1.0, "Y": -1.0}, "interpolation": 2}]}, "perspective_c1_x": {"Points": [{"co": {"X": 1.0, "Y": -1.0}, "interpolation": 2}]}, "scale_x": {"Points": [{"co": {"X": 1.0, "Y": 1.0}, "interpolation": 2}]}, "location_x": {"Points": [{"co": {"X": 1.0, "Y": 0.0}, "interpolation": 2}]}, "layer": 0, "title": "exp.mp4", "scale_y": {"Points": [{"co": {"X": 1.0, "Y": 1.0}, "interpolation": 2}]}, "crop_x": {"Points": [{"co": {"X": 1.0, "Y": 0.0}, "interpolation": 2}]}, "perspective_c3_y": {"Points": [{"co": {"X": 1.0, "Y": -1.0}, "interpolation": 2}]}, "shear_x": {"Points": [{"co": {"X": 1.0, "Y": 0.0}, "interpolation": 2}]}, "id": "7Q94ZI8XBY", "shear_y": {"Points": [{"co": {"X": 1.0, "Y": 0.0}, "interpolation": 2}]}, "has_audio": {"Points": [{"co": {"X": 1.0, "Y": -1.0}, "interpolation": 2}]}, "crop_height": {"Points": [{"co": {"X": 1.0, "Y": -1.0}, "interpolation": 2}]}, "end": 274.6000061035156, "gravity": 4, "start": 273.87, "wave_color": {"alpha": {"Points": [{"co": {"X": 1.0, "Y": 255.0}, "handle_right": {"X": 0.5, "Y": 0.0}, "handle_left": {"X": 0.5, "Y": 1.0}, "handle_type": 0, "interpolation": 0}]}, "green": {"Points": [{"co": {"X": 1.0, "Y": 123.0}, "handle_right": {"X": 0.5, "Y": 0.0}, "handle_left": {"X": 0.5, "Y": 1.0}, "handle_type": 0, "interpolation": 0}]}, "blue": {"Points": [{"co": {"X": 1.0, "Y": 255.0}, "handle_right": {"X": 0.5, "Y": 0.0}, "handle_left": {"X": 0.5, "Y": 1.0}, "handle_type": 0, "interpolation": 0}]}, "red": {"Points": [{"co": {"X": 1.0, "Y": 0.0}, "handle_right": {"X": 0.5, "Y": 0.0}, "handle_left": {"X": 0.5, "Y": 1.0}, "handle_type": 0, "interpolation": 0}]}}, "anchor": 0, "duration": 274.6000061035156, "perspective_c2_x": {"Points": [{"co": {"X": 1.0, "Y": -1.0}, "interpolation": 2}]}, "scale": 1, "alpha": {"Points": [{"co": {"X": 1.0, "Y": 1.0}, "interpolation": 2}]}, "image": "/Users/andreasziegler/.openshot_qt/thumbnail/7Q94ZI8XBY-4109.png", "perspective_c3_x": {"Points": [{"co": {"X": 1.0, "Y": -1.0}, "interpolation": 2}]}, "time": {"Points": [{"co": {"X": 1.0, "Y": 1.0}, "interpolation": 2}]}, "crop_y": {"Points": [{"co": {"X": 1.0, "Y": 0.0}, "interpolation": 2}]}, "reader": {"path": "/Volumes/Data/MRfDE/presentations/Final/videos/exp.mp4", "channels": 0, "audio_bit_rate": 0, "type": "FFmpegReader", "has_video": true, "display_ratio": {"den": 231, "num": 314}, "height": 924, "fps": {"den": 1, "num": 15}, "pixel_format": 5, "channel_layout": 4, "video_stream_index": 0, "video_length": "4119", "top_field_first": true, "has_audio": false, "video_timebase": {"den": 1500, "num": 1}, "width": 1256, "interlaced_frame": false, "audio_timebase": {"den": 1, "num": 1}, "has_single_image": false, "pixel_ratio": {"den": 1, "num": 1}, "sample_rate": 0, "video_bit_rate": 281441, "acodec": "", "vcodec": "h264", "duration": 274.6000061035156, "audio_stream_index": -1, "file_size": "9660493"}, "display": 0, "channel_mapping": {"Points": [{"co": {"X": 1.0, "Y": -1.0}, "interpolation": 2}]}, "waveform": false, "perspective_c4_y": {"Points": [{"co": {"X": 1.0, "Y": -1.0}, "interpolation": 2}]}}, "partial": false}, {"type": "update", "key": ["clips", {"id": "7Q94ZI8XBY"}], "old_values": {"rotation": {"Points": [{"co": {"X": 1.0, "Y": 0.0}, "interpolation": 2}]}, "perspective_c4_x": {"Points": [{"co": {"X": 1.0, "Y": -1.0}, "interpolation": 2}]}, "location_y": {"Points": [{"co": {"X": 1.0, "Y": 0.0}, "interpolation": 2}]}, "effects": [], "position": 272.5, "channel_filter": {"Points": [{"co": {"X": 1.0, "Y": -1.0}, "interpolation": 2}]}, "file_id": "TFWOSRR9O1", "crop_width": {"Points": [{"co": {"X": 1.0, "Y": -1.0}, "interpolation": 2}]}, "perspective_c2_y": {"Points": [{"co": {"X": 1.0, "Y": -1.0}, "interpolation": 2}]}, "perspective_c1_y": {"Points": [{"co": {"X": 1.0, "Y": -1.0}, "interpolation": 2}]}, "volume": {"Points": [{"co": {"X": 1.0, "Y": 1.0}, "interpolation": 2}]}, "has_video": {"Points": [{"co": {"X": 1.0, "Y": -1.0}, "interpolation": 2}]}, "perspective_c1_x": {"Points": [{"co": {"X": 1.0, "Y": -1.0}, "interpolation": 2}]}, "location_x": {"Points": [{"co": {"X": 1.0, "Y": 0.0}, "interpolation": 2}]}, "layer": 0, "title": "exp.mp4", "scale_y": {"Points": [{"co": {"X": 1.0, "Y": 1.0}, "interpolation": 2}]}, "crop_x": {"Points": [{"co": {"X": 1.0, "Y": 0.0}, "interpolation": 2}]}, "perspective_c3_y": {"Points": [{"co": {"X": 1.0, "Y": -1.0}, "interpolation": 2}]}, "shear_x": {"Points": [{"co": {"X": 1.0, "Y": 0.0}, "interpolation": 2}]}, "id": "7Q94ZI8XBY", "shear_y": {"Points": [{"co": {"X": 1.0, "Y": 0.0}, "interpolation": 2}]}, "has_audio": {"Points": [{"co": {"X": 1.0, "Y": -1.0}, "interpolation": 2}]}, "crop_height": {"Points": [{"co": {"X": 1.0, "Y": -1.0}, "interpolation": 2}]}, "end": 274.6000061035156, "start": 273.87, "waveform": false, "crop_y": {"Points": [{"co": {"X": 1.0, "Y": 0.0}, "interpolation": 2}]}, "gravity": 4, "anchor": 0, "duration": 274.6000061035156, "perspective_c2_x": {"Points": [{"co": {"X": 1.0, "Y": -1.0}, "interpolation": 2}]}, "scale": 1, "alpha": {"Points": [{"co": {"X": 1.0, "Y": 1.0}, "interpolation": 2}]}, "image": "/Users/andreasziegler/.openshot_qt/thumbnail/BHA47M8LFC-4045.png", "perspective_c3_x": {"Points": [{"co": {"X": 1.0, "Y": -1.0}, "interpolation": 2}]}, "time": {"Points": [{"co": {"X": 1.0, "Y": 1.0}, "interpolation": 2}]}, "scale_x": {"Points": [{"co": {"X": 1.0, "Y": 1.0}, "interpolation": 2}]}, "reader": {"path": "/Volumes/Data/MRfDE/presentations/Final/videos/exp.mp4", "channels": 0, "audio_bit_rate": 0, "type": "FFmpegReader", "video_bit_rate": 281441, "has_video": true, "display_ratio": {"den": 231, "num": 314}, "height": 924, "fps": {"den": 1, "num": 15}, "pixel_format": 5, "channel_layout": 4, "video_length": "4119", "top_field_first": true, "has_audio": false, "video_timebase": {"den": 1500, "num": 1}, "width": 1256, "interlaced_frame": false, "audio_timebase": {"den": 1, "num": 1}, "has_single_image": false, "pixel_ratio": {"den": 1, "num": 1}, "sample_rate": 0, "video_stream_index": 0, "acodec": "", "vcodec": "h264", "duration": 274.6000061035156, "audio_stream_index": -1, "file_size": "9660493"}, "display": 0, "channel_mapping": {"Points": [{"co": {"X": 1.0, "Y": -1.0}, "interpolation": 2}]}, "wave_color": {"alpha": {"Points": [{"co": {"X": 1.0, "Y": 255.0}, "handle_right": {"X": 0.5, "Y": 0.0}, "handle_left": {"X": 0.5, "Y": 1.0}, "handle_type": 0, "interpolation": 0}]}, "green": {"Points": [{"co": {"X": 1.0, "Y": 123.0}, "handle_right": {"X": 0.5, "Y": 0.0}, "handle_left": {"X": 0.5, "Y": 1.0}, "handle_type": 0, "interpolation": 0}]}, "blue": {"Points": [{"co": {"X": 1.0, "Y": 255.0}, "handle_right": {"X": 0.5, "Y": 0.0}, "handle_left": {"X": 0.5, "Y": 1.0}, "handle_type": 0, "interpolation": 0}]}, "red": {"Points": [{"co": {"X": 1.0, "Y": 0.0}, "handle_right": {"X": 0.5, "Y": 0.0}, "handle_left": {"X": 0.5, "Y": 1.0}, "handle_type": 0, "interpolation": 0}]}}, "perspective_c4_y": {"Points": [{"co": {"X": 1.0, "Y": -1.0}, "interpolation": 2}]}}, "value": {"rotation": {"Points": [{"co": {"X": 1.0, "Y": 0.0}, "interpolation": 2}]}, "perspective_c4_x": {"Points": [{"co": {"X": 1.0, "Y": -1.0}, "interpolation": 2}]}, "location_y": {"Points": [{"co": {"X": 1.0, "Y": 0.0}, "interpolation": 2}]}, "effects": [], "position": 272.5, "channel_filter": {"Points": [{"co": {"X": 1.0, "Y": -1.0}, "interpolation": 2}]}, "file_id": "TFWOSRR9O1", "has_audio": {"Points": [{"co": {"X": 1.0, "Y": -1.0}, "interpolation": 2}]}, "crop_width": {"Points": [{"co": {"X": 1.0, "Y": -1.0}, "interpolation": 2}]}, "perspective_c2_y": {"Points": [{"co": {"X": 1.0, "Y": -1.0}, "interpolation": 2}]}, "perspective_c1_y": {"Points": [{"co": {"X": 1.0, "Y": -1.0}, "interpolation": 2}]}, "volume": {"Points": [{"co": {"X": 1.0, "Y": 1.0}, "interpolation": 2}]}, "has_video": {"Points": [{"co": {"X": 1.0, "Y": -1.0}, "interpolation": 2}]}, "perspective_c1_x": {"Points": [{"co": {"X": 1.0, "Y": -1.0}, "interpolation": 2}]}, "location_x": {"Points": [{"co": {"X": 1.0, "Y": 0.0}, "interpolation": 2}]}, "layer": 0, "crop_x": {"Points": [{"co": {"X": 1.0, "Y": 0.0}, "interpolation": 2}]}, "perspective_c3_y": {"Points": [{"co": {"X": 1.0, "Y": -1.0}, "interpolation": 2}]}, "shear_x": {"Points": [{"co": {"X": 1.0, "Y": 0.0}, "interpolation": 2}]}, "id": "7Q94ZI8XBY", "waveform": false, "shear_y": {"Points": [{"co": {"X": 1.0, "Y": 0.0}, "interpolation": 2}]}, "scale_y": {"Points": [{"co": {"X": 1.0, "Y": 1.0}, "interpolation": 2}]}, "crop_height": {"Points": [{"co": {"X": 1.0, "Y": -1.0}, "interpolation": 2}]}, "end": 274.6000061035156, "start": 273.87, "image": "/Users/andreasziegler/.openshot_qt/thumbnail/7Q94ZI8XBY-4109.png", "crop_y": {"Points": [{"co": {"X": 1.0, "Y": 0.0}, "interpolation": 2}]}, "wave_color": {"alpha": {"Points": [{"co": {"X": 1.0, "Y": 255.0}, "handle_right": {"X": 0.5, "Y": 0.0}, "handle_left": {"X": 0.5, "Y": 1.0}, "handle_type": 0, "interpolation": 0}]}, "green": {"Points": [{"co": {"X": 1.0, "Y": 123.0}, "handle_right": {"X": 0.5, "Y": 0.0}, "handle_left": {"X": 0.5, "Y": 1.0}, "handle_type": 0, "interpolation": 0}]}, "blue": {"Points": [{"co": {"X": 1.0, "Y": 255.0}, "handle_right": {"X": 0.5, "Y": 0.0}, "handle_left": {"X": 0.5, "Y": 1.0}, "handle_type": 0, "interpolation": 0}]}, "red": {"Points": [{"co": {"X": 1.0, "Y": 0.0}, "handle_right": {"X": 0.5, "Y": 0.0}, "handle_left": {"X": 0.5, "Y": 1.0}, "handle_type": 0, "interpolation": 0}]}}, "anchor": 0, "duration": 274.6000061035156, "perspective_c2_x": {"Points": [{"co": {"X": 1.0, "Y": -1.0}, "interpolation": 2}]}, "scale": 1, "alpha": {"Points": [{"co": {"X": 1.0, "Y": 1.0}, "interpolation": 2}]}, "title": "exp.mp4", "perspective_c3_x": {"Points": [{"co": {"X": 1.0, "Y": -1.0}, "interpolation": 2}]}, "time": {"Points": [{"co": {"X": 1.0, "Y": 1.0}, "interpolation": 2}]}, "scale_x": {"Points": [{"co": {"X": 1.0, "Y": 1.0}, "interpolation": 2}]}, "display": 0, "channel_mapping": {"Points": [{"co": {"X": 1.0, "Y": -1.0}, "interpolation": 2}]}, "gravity": 4, "perspective_c4_y": {"Points": [{"co": {"X": 1.0, "Y": -1.0}, "interpolation": 2}]}}, "partial": false}, {"type": "update", "key": ["clips", {"id": "BHA47M8LFC"}], "old_values": {"rotation": {"Points": [{"co": {"X": 1.0, "Y": 0.0}, "interpolation": 2}]}, "perspective_c4_x": {"Points": [{"co": {"X": 1.0, "Y": -1.0}, "interpolation": 2}]}, "location_y": {"Points": [{"co": {"X": 1.0, "Y": 0.0}, "interpolation": 2}]}, "effects": [], "position": 268.25, "channel_filter": {"Points": [{"co": {"X": 1.0, "Y": -1.0}, "interpolation": 2}]}, "file_id": "TFWOSRR9O1", "has_audio": {"Points": [{"co": {"X": 1.0, "Y": -1.0}, "interpolation": 2}]}, "crop_width": {"Points": [{"co": {"X": 1.0, "Y": -1.0}, "interpolation": 2}]}, "perspective_c2_y": {"Points": [{"co": {"X": 1.0, "Y": -1.0}, "interpolation": 2}]}, "perspective_c1_y": {"Points": [{"co": {"X": 1.0, "Y": -1.0}, "interpolation": 2}]}, "volume": {"Points": [{"co": {"X": 1.0, "Y": 1.0}, "interpolation": 2}]}, "has_video": {"Points": [{"co": {"X": 1.0, "Y": -1.0}, "interpolation": 2}]}, "perspective_c1_x": {"Points": [{"co": {"X": 1.0, "Y": -1.0}, "interpolation": 2}]}, "location_x": {"Points": [{"co": {"X": 1.0, "Y": 0.0}, "interpolation": 2}]}, "layer": 0, "crop_x": {"Points": [{"co": {"X": 1.0, "Y": 0.0}, "interpolation": 2}]}, "perspective_c3_y": {"Points": [{"co": {"X": 1.0, "Y": -1.0}, "interpolation": 2}]}, "shear_x": {"Points": [{"co": {"X": 1.0, "Y": 0.0}, "interpolation": 2}]}, "id": "BHA47M8LFC", "waveform": false, "shear_y": {"Points": [{"co": {"X": 1.0, "Y": 0.0}, "interpolation": 2}]}, "scale_y": {"Points": [{"co": {"X": 1.0, "Y": 1.0}, "interpolation": 2}]}, "crop_height": {"Points": [{"co": {"X": 1.0, "Y": -1.0}, "interpolation": 2}]}, "end": 274.6000061035156, "start": 269.62, "image": "/Users/andreasziegler/.openshot_qt/thumbnail/BHA47M8LFC-4045.png", "crop_y": {"Points": [{"co": {"X": 1.0, "Y": 0.0}, "interpolation": 2}]}, "wave_color": {"alpha": {"Points": [{"co": {"X": 1.0, "Y": 255.0}, "handle_right": {"X": 0.5, "Y": 0.0}, "handle_left": {"X": 0.5, "Y": 1.0}, "handle_type": 0, "interpolation": 0}]}, "green": {"Points": [{"co": {"X": 1.0, "Y": 123.0}, "handle_right": {"X": 0.5, "Y": 0.0}, "handle_left": {"X": 0.5, "Y": 1.0}, "handle_type": 0, "interpolation": 0}]}, "blue": {"Points": [{"co": {"X": 1.0, "Y": 255.0}, "handle_right": {"X": 0.5, "Y": 0.0}, "handle_left": {"X": 0.5, "Y": 1.0}, "handle_type": 0, "interpolation": 0}]}, "red": {"Points": [{"co": {"X": 1.0, "Y": 0.0}, "handle_right": {"X": 0.5, "Y": 0.0}, "handle_left": {"X": 0.5, "Y": 1.0}, "handle_type": 0, "interpolation": 0}]}}, "anchor": 0, "duration": 274.6000061035156, "perspective_c2_x": {"Points": [{"co": {"X": 1.0, "Y": -1.0}, "interpolation": 2}]}, "scale": 1, "alpha": {"Points": [{"co": {"X": 1.0, "Y": 1.0}, "interpolation": 2}]}, "title": "exp.mp4", "perspective_c3_x": {"Points": [{"co": {"X": 1.0, "Y": -1.0}, "interpolation": 2}]}, "time": {"Points": [{"co": {"X": 1.0, "Y": 1.0}, "interpolation": 2}]}, "scale_x": {"Points": [{"co": {"X": 1.0, "Y": 1.0}, "interpolation": 2}]}, "reader": {"path": "/Volumes/Data/MRfDE/presentations/Final/videos/exp.mp4", "channels": 0, "audio_bit_rate": 0, "type": "FFmpegReader", "video_bit_rate": 281441, "has_video": true, "display_ratio": {"den": 231, "num": 314}, "height": 924, "fps": {"den": 1, "num": 15}, "pixel_format": 5, "channel_layout": 4, "video_length": "4119", "top_field_first": true, "has_audio": false, "video_timebase": {"den": 1500, "num": 1}, "width": 1256, "interlaced_frame": false, "audio_timebase": {"den": 1, "num": 1}, "has_single_image": false, "pixel_ratio": {"den": 1, "num": 1}, "sample_rate": 0, "video_stream_index": 0, "acodec": "", "vcodec": "h264", "duration": 274.6000061035156, "audio_stream_index": -1, "file_size": "9660493"}, "display": 0, "channel_mapping": {"Points": [{"co": {"X": 1.0, "Y": -1.0}, "interpolation": 2}]}, "gravity": 4, "perspective_c4_y": {"Points": [{"co": {"X": 1.0, "Y": -1.0}, "interpolation": 2}]}}, "value": {"rotation": {"Points": [{"co": {"X": 1.0, "Y": 0.0}, "interpolation": 2}]}, "perspective_c4_x": {"Points": [{"co": {"X": 1.0, "Y": -1.0}, "interpolation": 2}]}, "location_y": {"Points": [{"co": {"X": 1.0, "Y": 0.0}, "interpolation": 2}]}, "effects": [], "position": 268.25, "channel_filter": {"Points": [{"co": {"X": 1.0, "Y": -1.0}, "interpolation": 2}]}, "file_id": "TFWOSRR9O1", "has_audio": {"Points": [{"co": {"X": 1.0, "Y": -1.0}, "interpolation": 2}]}, "crop_width": {"Points": [{"co": {"X": 1.0, "Y": -1.0}, "interpolation": 2}]}, "perspective_c2_y": {"Points": [{"co": {"X": 1.0, "Y": -1.0}, "interpolation": 2}]}, "perspective_c1_y": {"Points": [{"co": {"X": 1.0, "Y": -1.0}, "interpolation": 2}]}, "volume": {"Points": [{"co": {"X": 1.0, "Y": 1.0}, "interpolation": 2}]}, "has_video": {"Points": [{"co": {"X": 1.0, "Y": -1.0}, "interpolation": 2}]}, "perspective_c1_x": {"Points": [{"co": {"X": 1.0, "Y": -1.0}, "interpolation": 2}]}, "location_x": {"Points": [{"co": {"X": 1.0, "Y": 0.0}, "interpolation": 2}]}, "layer": 0, "crop_x": {"Points": [{"co": {"X": 1.0, "Y": 0.0}, "interpolation": 2}]}, "perspective_c3_y": {"Points": [{"co": {"X": 1.0, "Y": -1.0}, "interpolation": 2}]}, "shear_x": {"Points": [{"co": {"X": 1.0, "Y": 0.0}, "interpolation": 2}]}, "id": "BHA47M8LFC", "waveform": false, "shear_y": {"Points": [{"co": {"X": 1.0, "Y": 0.0}, "interpolation": 2}]}, "scale_y": {"Points": [{"co": {"X": 1.0, "Y": 1.0}, "interpolation": 2}]}, "crop_height": {"Points": [{"co": {"X": 1.0, "Y": -1.0}, "interpolation": 2}]}, "end": 273.87, "start": 269.62, "image": "/Users/andreasziegler/.openshot_qt/thumbnail/BHA47M8LFC-4045.png", "crop_y": {"Points": [{"co": {"X": 1.0, "Y": 0.0}, "interpolation": 2}]}, "wave_color": {"alpha": {"Points": [{"co": {"X": 1.0, "Y": 255.0}, "handle_right": {"X": 0.5, "Y": 0.0}, "handle_left": {"X": 0.5, "Y": 1.0}, "handle_type": 0, "interpolation": 0}]}, "green": {"Points": [{"co": {"X": 1.0, "Y": 123.0}, "handle_right": {"X": 0.5, "Y": 0.0}, "handle_left": {"X": 0.5, "Y": 1.0}, "handle_type": 0, "interpolation": 0}]}, "blue": {"Points": [{"co": {"X": 1.0, "Y": 255.0}, "handle_right": {"X": 0.5, "Y": 0.0}, "handle_left": {"X": 0.5, "Y": 1.0}, "handle_type": 0, "interpolation": 0}]}, "red": {"Points": [{"co": {"X": 1.0, "Y": 0.0}, "handle_right": {"X": 0.5, "Y": 0.0}, "handle_left": {"X": 0.5, "Y": 1.0}, "handle_type": 0, "interpolation": 0}]}}, "anchor": 0, "duration": 274.6000061035156, "perspective_c2_x": {"Points": [{"co": {"X": 1.0, "Y": -1.0}, "interpolation": 2}]}, "scale": 1, "alpha": {"Points": [{"co": {"X": 1.0, "Y": 1.0}, "interpolation": 2}]}, "title": "exp.mp4", "perspective_c3_x": {"Points": [{"co": {"X": 1.0, "Y": -1.0}, "interpolation": 2}]}, "time": {"Points": [{"co": {"X": 1.0, "Y": 1.0}, "interpolation": 2}]}, "scale_x": {"Points": [{"co": {"X": 1.0, "Y": 1.0}, "interpolation": 2}]}, "display": 0, "channel_mapping": {"Points": [{"co": {"X": 1.0, "Y": -1.0}, "interpolation": 2}]}, "gravity": 4, "perspective_c4_y": {"Points": [{"co": {"X": 1.0, "Y": -1.0}, "interpolation": 2}]}}, "partial": false}, {"type": "delete", "key": ["clips", {"id": "BHA47M8LFC"}], "old_values": {"rotation": {"Points": [{"co": {"X": 1.0, "Y": 0.0}, "interpolation": 2}]}, "perspective_c4_x": {"Points": [{"co": {"X": 1.0, "Y": -1.0}, "interpolation": 2}]}, "location_y": {"Points": [{"co": {"X": 1.0, "Y": 0.0}, "interpolation": 2}]}, "effects": [], "position": 268.25, "channel_filter": {"Points": [{"co": {"X": 1.0, "Y": -1.0}, "interpolation": 2}]}, "file_id": "TFWOSRR9O1", "has_audio": {"Points": [{"co": {"X": 1.0, "Y": -1.0}, "interpolation": 2}]}, "crop_width": {"Points": [{"co": {"X": 1.0, "Y": -1.0}, "interpolation": 2}]}, "perspective_c2_y": {"Points": [{"co": {"X": 1.0, "Y": -1.0}, "interpolation": 2}]}, "perspective_c1_y": {"Points": [{"co": {"X": 1.0, "Y": -1.0}, "interpolation": 2}]}, "volume": {"Points": [{"co": {"X": 1.0, "Y": 1.0}, "interpolation": 2}]}, "has_video": {"Points": [{"co": {"X": 1.0, "Y": -1.0}, "interpolation": 2}]}, "perspective_c1_x": {"Points": [{"co": {"X": 1.0, "Y": -1.0}, "interpolation": 2}]}, "location_x": {"Points": [{"co": {"X": 1.0, "Y": 0.0}, "interpolation": 2}]}, "layer": 0, "crop_x": {"Points": [{"co": {"X": 1.0, "Y": 0.0}, "interpolation": 2}]}, "perspective_c3_y": {"Points": [{"co": {"X": 1.0, "Y": -1.0}, "interpolation": 2}]}, "shear_x": {"Points": [{"co": {"X": 1.0, "Y": 0.0}, "interpolation": 2}]}, "id": "BHA47M8LFC", "waveform": false, "shear_y": {"Points": [{"co": {"X": 1.0, "Y": 0.0}, "interpolation": 2}]}, "scale_y": {"Points": [{"co": {"X": 1.0, "Y": 1.0}, "interpolation": 2}]}, "crop_height": {"Points": [{"co": {"X": 1.0, "Y": -1.0}, "interpolation": 2}]}, "end": 273.87, "start": 269.62, "image": "/Users/andreasziegler/.openshot_qt/thumbnail/BHA47M8LFC-4045.png", "crop_y": {"Points": [{"co": {"X": 1.0, "Y": 0.0}, "interpolation": 2}]}, "wave_color": {"green": {"Points": [{"co": {"X": 1.0, "Y": 123.0}, "handle_right": {"X": 0.5, "Y": 0.0}, "handle_left": {"X": 0.5, "Y": 1.0}, "handle_type": 0, "interpolation": 0}]}, "red": {"Points": [{"co": {"X": 1.0, "Y": 0.0}, "handle_right": {"X": 0.5, "Y": 0.0}, "handle_left": {"X": 0.5, "Y": 1.0}, "handle_type": 0, "interpolation": 0}]}, "blue": {"Points": [{"co": {"X": 1.0, "Y": 255.0}, "handle_right": {"X": 0.5, "Y": 0.0}, "handle_left": {"X": 0.5, "Y": 1.0}, "handle_type": 0, "interpolation": 0}]}, "alpha": {"Points": [{"co": {"X": 1.0, "Y": 255.0}, "handle_right": {"X": 0.5, "Y": 0.0}, "handle_left": {"X": 0.5, "Y": 1.0}, "handle_type": 0, "interpolation": 0}]}}, "anchor": 0, "duration": 274.6000061035156, "perspective_c2_x": {"Points": [{"co": {"X": 1.0, "Y": -1.0}, "interpolation": 2}]}, "scale": 1, "alpha": {"Points": [{"co": {"X": 1.0, "Y": 1.0}, "interpolation": 2}]}, "title": "exp.mp4", "perspective_c3_x": {"Points": [{"co": {"X": 1.0, "Y": -1.0}, "interpolation": 2}]}, "time": {"Points": [{"co": {"X": 1.0, "Y": 1.0}, "interpolation": 2}]}, "scale_x": {"Points": [{"co": {"X": 1.0, "Y": 1.0}, "interpolation": 2}]}, "reader": {"path": "/Volumes/Data/MRfDE/presentations/Final/videos/exp.mp4", "channels": 0, "audio_bit_rate": 0, "type": "FFmpegReader", "video_bit_rate": 281441, "has_video": true, "display_ratio": {"den": 231, "num": 314}, "height": 924, "fps": {"den": 1, "num": 15}, "pixel_format": 5, "channel_layout": 4, "video_length": "4119", "top_field_first": true, "has_audio": false, "video_timebase": {"den": 1500, "num": 1}, "width": 1256, "interlaced_frame": false, "audio_timebase": {"den": 1, "num": 1}, "has_single_image": false, "pixel_ratio": {"den": 1, "num": 1}, "sample_rate": 0, "video_stream_index": 0, "acodec": "", "vcodec": "h264", "duration": 274.6000061035156, "audio_stream_index": -1, "file_size": "9660493"}, "display": 0, "channel_mapping": {"Points": [{"co": {"X": 1.0, "Y": -1.0}, "interpolation": 2}]}, "gravity": 4, "perspective_c4_y": {"Points": [{"co": {"X": 1.0, "Y": -1.0}, "interpolation": 2}]}}, "value": null, "partial": false}, {"type": "delete", "key": ["clips", {"id": "7Q94ZI8XBY"}], "old_values": {"rotation": {"Points": [{"co": {"X": 1.0, "Y": 0.0}, "interpolation": 2}]}, "perspective_c4_x": {"Points": [{"co": {"X": 1.0, "Y": -1.0}, "interpolation": 2}]}, "location_y": {"Points": [{"co": {"X": 1.0, "Y": 0.0}, "interpolation": 2}]}, "effects": [], "position": 272.5, "channel_filter": {"Points": [{"co": {"X": 1.0, "Y": -1.0}, "interpolation": 2}]}, "file_id": "TFWOSRR9O1", "has_audio": {"Points": [{"co": {"X": 1.0, "Y": -1.0}, "interpolation": 2}]}, "crop_width": {"Points": [{"co": {"X": 1.0, "Y": -1.0}, "interpolation": 2}]}, "perspective_c2_y": {"Points": [{"co": {"X": 1.0, "Y": -1.0}, "interpolation": 2}]}, "perspective_c1_y": {"Points": [{"co": {"X": 1.0, "Y": -1.0}, "interpolation": 2}]}, "volume": {"Points": [{"co": {"X": 1.0, "Y": 1.0}, "interpolation": 2}]}, "has_video": {"Points": [{"co": {"X": 1.0, "Y": -1.0}, "interpolation": 2}]}, "perspective_c1_x": {"Points": [{"co": {"X": 1.0, "Y": -1.0}, "interpolation": 2}]}, "location_x": {"Points": [{"co": {"X": 1.0, "Y": 0.0}, "interpolation": 2}]}, "layer": 0, "crop_x": {"Points": [{"co": {"X": 1.0, "Y": 0.0}, "interpolation": 2}]}, "perspective_c3_y": {"Points": [{"co": {"X": 1.0, "Y": -1.0}, "interpolation": 2}]}, "shear_x": {"Points": [{"co": {"X": 1.0, "Y": 0.0}, "interpolation": 2}]}, "id": "7Q94ZI8XBY", "waveform": false, "shear_y": {"Points": [{"co": {"X": 1.0, "Y": 0.0}, "interpolation": 2}]}, "scale_y": {"Points": [{"co": {"X": 1.0, "Y": 1.0}, "interpolation": 2}]}, "crop_height": {"Points": [{"co": {"X": 1.0, "Y": -1.0}, "interpolation": 2}]}, "end": 274.6000061035156, "start": 273.87, "image": "/Users/andreasziegler/.openshot_qt/thumbnail/7Q94ZI8XBY-4109.png", "crop_y": {"Points": [{"co": {"X": 1.0, "Y": 0.0}, "interpolation": 2}]}, "gravity": 4, "anchor": 0, "duration": 274.6000061035156, "perspective_c2_x": {"Points": [{"co": {"X": 1.0, "Y": -1.0}, "interpolation": 2}]}, "scale": 1, "alpha": {"Points": [{"co": {"X": 1.0, "Y": 1.0}, "interpolation": 2}]}, "title": "exp.mp4", "perspective_c3_x": {"Points": [{"co": {"X": 1.0, "Y": -1.0}, "interpolation": 2}]}, "time": {"Points": [{"co": {"X": 1.0, "Y": 1.0}, "interpolation": 2}]}, "scale_x": {"Points": [{"co": {"X": 1.0, "Y": 1.0}, "interpolation": 2}]}, "reader": {"path": "/Volumes/Data/MRfDE/presentations/Final/videos/exp.mp4", "channels": 0, "audio_bit_rate": 0, "type": "FFmpegReader", "video_bit_rate": 281441, "has_video": true, "display_ratio": {"den": 231, "num": 314}, "height": 924, "fps": {"den": 1, "num": 15}, "pixel_format": 5, "channel_layout": 4, "video_length": "4119", "top_field_first": true, "has_audio": false, "video_timebase": {"den": 1500, "num": 1}, "width": 1256, "interlaced_frame": false, "audio_timebase": {"den": 1, "num": 1}, "has_single_image": false, "pixel_ratio": {"den": 1, "num": 1}, "sample_rate": 0, "video_stream_index": 0, "acodec": "", "vcodec": "h264", "duration": 274.6000061035156, "audio_stream_index": -1, "file_size": "9660493"}, "display": 0, "channel_mapping": {"Points": [{"co": {"X": 1.0, "Y": -1.0}, "interpolation": 2}]}, "wave_color": {"green": {"Points": [{"co": {"X": 1.0, "Y": 123.0}, "handle_right": {"X": 0.5, "Y": 0.0}, "handle_left": {"X": 0.5, "Y": 1.0}, "handle_type": 0, "interpolation": 0}]}, "red": {"Points": [{"co": {"X": 1.0, "Y": 0.0}, "handle_right": {"X": 0.5, "Y": 0.0}, "handle_left": {"X": 0.5, "Y": 1.0}, "handle_type": 0, "interpolation": 0}]}, "blue": {"Points": [{"co": {"X": 1.0, "Y": 255.0}, "handle_right": {"X": 0.5, "Y": 0.0}, "handle_left": {"X": 0.5, "Y": 1.0}, "handle_type": 0, "interpolation": 0}]}, "alpha": {"Points": [{"co": {"X": 1.0, "Y": 255.0}, "handle_right": {"X": 0.5, "Y": 0.0}, "handle_left": {"X": 0.5, "Y": 1.0}, "handle_type": 0, "interpolation": 0}]}}, "perspective_c4_y": {"Points": [{"co": {"X": 1.0, "Y": -1.0}, "interpolation": 2}]}}, "value": null, "partial": false}, {"type": "delete", "key": ["markers", {"id": "I6GIZIL4PY"}], "old_values": {"icon": "blue.png", "id": "I6GIZIL4PY", "position": 268.0416666666667}, "value": null, "partial": false}, {"type": "update", "key": ["clips", {"id": "AFAP84VNLK"}], "old_values": {"rotation": {"Points": [{"co": {"X": 1.0, "Y": 0.0}, "interpolation": 2}]}, "perspective_c4_x": {"Points": [{"co": {"X": 1.0, "Y": -1.0}, "interpolation": 2}]}, "location_y": {"Points": [{"co": {"X": 1.0, "Y": 0.0}, "interpolation": 2}]}, "effects": [], "position": 0, "channel_filter": {"Points": [{"co": {"X": 1.0, "Y": -1.0}, "interpolation": 2}]}, "file_id": "TFWOSRR9O1", "has_audio": {"Points": [{"co": {"X": 1.0, "Y": -1.0}, "interpolation": 2}]}, "crop_width": {"Points": [{"co": {"X": 1.0, "Y": -1.0}, "interpolation": 2}]}, "perspective_c2_y": {"Points": [{"co": {"X": 1.0, "Y": -1.0}, "interpolation": 2}]}, "perspective_c1_y": {"Points": [{"co": {"X": 1.0, "Y": -1.0}, "interpolation": 2}]}, "volume": {"Points": [{"co": {"X": 1.0, "Y": 1.0}, "interpolation": 2}]}, "has_video": {"Points": [{"co": {"X": 1.0, "Y": -1.0}, "interpolation": 2}]}, "perspective_c1_x": {"Points": [{"co": {"X": 1.0, "Y": -1.0}, "interpolation": 2}]}, "location_x": {"Points": [{"co": {"X": 1.0, "Y": 0.0}, "interpolation": 2}]}, "layer": 0, "crop_x": {"Points": [{"co": {"X": 1.0, "Y": 0.0}, "interpolation": 2}]}, "perspective_c3_y": {"Points": [{"co": {"X": 1.0, "Y": -1.0}, "interpolation": 2}]}, "shear_x": {"Points": [{"co": {"X": 1.0, "Y": 0.0}, "interpolation": 2}]}, "id": "AFAP84VNLK", "waveform": false, "shear_y": {"Points": [{"co": {"X": 1.0, "Y": 0.0}, "interpolation": 2}]}, "scale_y": {"Points": [{"co": {"X": 1.0, "Y": 1.0}, "interpolation": 2}]}, "crop_height": {"Points": [{"co": {"X": 1.0, "Y": -1.0}, "interpolation": 2}]}, "end": 269.62, "start": 1.37, "image": "/Users/andreasziegler/.openshot_qt/thumbnail/AFAP84VNLK-22.png", "crop_y": {"Points": [{"co": {"X": 1.0, "Y": 0.0}, "interpolation": 2}]}, "gravity": 4, "anchor": 0, "duration": 274.6000061035156, "perspective_c2_x": {"Points": [{"co": {"X": 1.0, "Y": -1.0}, "interpolation": 2}]}, "scale": 1, "alpha": {"Points": [{"co": {"X": 1.0, "Y": 1.0}, "interpolation": 2}]}, "title": "exp.mp4", "perspective_c3_x": {"Points": [{"co": {"X": 1.0, "Y": -1.0}, "interpolation": 2}]}, "time": {"Points": [{"co": {"X": 1.0, "Y": 1.0}, "interpolation": 2}]}, "scale_x": {"Points": [{"co": {"X": 1.0, "Y": 1.0}, "interpolation": 2}]}, "reader": {"path": "/Volumes/Data/MRfDE/presentations/Final/videos/exp.mp4", "channels": 0, "audio_bit_rate": 0, "type": "FFmpegReader", "video_bit_rate": 281441, "has_video": true, "display_ratio": {"den": 231, "num": 314}, "height": 924, "fps": {"den": 1, "num": 15}, "pixel_format": 5, "channel_layout": 4, "video_length": "4119", "top_field_first": true, "has_audio": false, "video_timebase": {"den": 1500, "num": 1}, "width": 1256, "interlaced_frame": false, "audio_timebase": {"den": 1, "num": 1}, "has_single_image": false, "pixel_ratio": {"den": 1, "num": 1}, "sample_rate": 0, "video_stream_index": 0, "acodec": "", "vcodec": "h264", "duration": 274.6000061035156, "audio_stream_index": -1, "file_size": "9660493"}, "display": 0, "channel_mapping": {"Points": [{"co": {"X": 1.0, "Y": -1.0}, "interpolation": 2}]}, "wave_color": {"alpha": {"Points": [{"co": {"X": 1.0, "Y": 255.0}, "handle_right": {"X": 0.5, "Y": 0.0}, "handle_left": {"X": 0.5, "Y": 1.0}, "handle_type": 0, "interpolation": 0}]}, "green": {"Points": [{"co": {"X": 1.0, "Y": 123.0}, "handle_right": {"X": 0.5, "Y": 0.0}, "handle_left": {"X": 0.5, "Y": 1.0}, "handle_type": 0, "interpolation": 0}]}, "blue": {"Points": [{"co": {"X": 1.0, "Y": 255.0}, "handle_right": {"X": 0.5, "Y": 0.0}, "handle_left": {"X": 0.5, "Y": 1.0}, "handle_type": 0, "interpolation": 0}]}, "red": {"Points": [{"co": {"X": 1.0, "Y": 0.0}, "handle_right": {"X": 0.5, "Y": 0.0}, "handle_left": {"X": 0.5, "Y": 1.0}, "handle_type": 0, "interpolation": 0}]}}, "perspective_c4_y": {"Points": [{"co": {"X": 1.0, "Y": -1.0}, "interpolation": 2}]}}, "value": {"image": "/Users/andreasziegler/.openshot_qt/thumbnail/AFAP84VNLK-22.png", "id": "AFAP84VNLK", "position": 0, "layer": 0, "start": 1.37, "end": 269.62}, "partial": false}, {"type": "update", "key": ["clips", {"id": "AFAP84VNLK"}], "old_values": {"rotation": {"Points": [{"co": {"X": 1.0, "Y": 0.0}, "interpolation": 2}]}, "perspective_c4_x": {"Points": [{"co": {"X": 1.0, "Y": -1.0}, "interpolation": 2}]}, "location_y": {"Points": [{"co": {"X": 1.0, "Y": 0.0}, "interpolation": 2}]}, "effects": [], "position": 0, "channel_filter": {"Points": [{"co": {"X": 1.0, "Y": -1.0}, "interpolation": 2}]}, "file_id": "TFWOSRR9O1", "has_audio": {"Points": [{"co": {"X": 1.0, "Y": -1.0}, "interpolation": 2}]}, "crop_width": {"Points": [{"co": {"X": 1.0, "Y": -1.0}, "interpolation": 2}]}, "perspective_c2_y": {"Points": [{"co": {"X": 1.0, "Y": -1.0}, "interpolation": 2}]}, "perspective_c1_y": {"Points": [{"co": {"X": 1.0, "Y": -1.0}, "interpolation": 2}]}, "volume": {"Points": [{"co": {"X": 1.0, "Y": 1.0}, "interpolation": 2}]}, "has_video": {"Points": [{"co": {"X": 1.0, "Y": -1.0}, "interpolation": 2}]}, "perspective_c1_x": {"Points": [{"co": {"X": 1.0, "Y": -1.0}, "interpolation": 2}]}, "location_x": {"Points": [{"co": {"X": 1.0, "Y": 0.0}, "interpolation": 2}]}, "layer": 0, "crop_x": {"Points": [{"co": {"X": 1.0, "Y": 0.0}, "interpolation": 2}]}, "perspective_c3_y": {"Points": [{"co": {"X": 1.0, "Y": -1.0}, "interpolation": 2}]}, "shear_x": {"Points": [{"co": {"X": 1.0, "Y": 0.0}, "interpolation": 2}]}, "id": "AFAP84VNLK", "waveform": false, "shear_y": {"Points": [{"co": {"X": 1.0, "Y": 0.0}, "interpolation": 2}]}, "scale_y": {"Points": [{"co": {"X": 1.0, "Y": 1.0}, "interpolation": 2}]}, "crop_height": {"Points": [{"co": {"X": 1.0, "Y": -1.0}, "interpolation": 2}]}, "end": 269.62, "start": 1.37, "image": "/Users/andreasziegler/.openshot_qt/thumbnail/AFAP84VNLK-22.png", "crop_y": {"Points": [{"co": {"X": 1.0, "Y": 0.0}, "interpolation": 2}]}, "gravity": 4, "anchor": 0, "duration": 274.6000061035156, "perspective_c2_x": {"Points": [{"co": {"X": 1.0, "Y": -1.0}, "interpolation": 2}]}, "scale": 1, "alpha": {"Points": [{"co": {"X": 1.0, "Y": 1.0}, "interpolation": 2}]}, "title": "exp.mp4", "perspective_c3_x": {"Points": [{"co": {"X": 1.0, "Y": -1.0}, "interpolation": 2}]}, "time": {"Points": [{"co": {"X": 1.0, "Y": 1.0}, "interpolation": 2}]}, "scale_x": {"Points": [{"co": {"X": 1.0, "Y": 1.0}, "interpolation": 2}]}, "reader": {"path": "/Volumes/Data/MRfDE/presentations/Final/videos/exp.mp4", "channels": 0, "audio_bit_rate": 0, "type": "FFmpegReader", "video_bit_rate": 281441, "has_video": true, "display_ratio": {"den": 231, "num": 314}, "height": 924, "fps": {"den": 1, "num": 15}, "pixel_format": 5, "channel_layout": 4, "video_length": "4119", "top_field_first": true, "has_audio": false, "video_timebase": {"den": 1500, "num": 1}, "width": 1256, "interlaced_frame": false, "audio_timebase": {"den": 1, "num": 1}, "has_single_image": false, "pixel_ratio": {"den": 1, "num": 1}, "sample_rate": 0, "video_stream_index": 0, "acodec": "", "vcodec": "h264", "duration": 274.6000061035156, "audio_stream_index": -1, "file_size": "9660493"}, "display": 0, "channel_mapping": {"Points": [{"co": {"X": 1.0, "Y": -1.0}, "interpolation": 2}]}, "wave_color": {"alpha": {"Points": [{"co": {"X": 1.0, "Y": 255.0}, "handle_right": {"X": 0.5, "Y": 0.0}, "handle_left": {"X": 0.5, "Y": 1.0}, "handle_type": 0, "interpolation": 0}]}, "green": {"Points": [{"co": {"X": 1.0, "Y": 123.0}, "handle_right": {"X": 0.5, "Y": 0.0}, "handle_left": {"X": 0.5, "Y": 1.0}, "handle_type": 0, "interpolation": 0}]}, "blue": {"Points": [{"co": {"X": 1.0, "Y": 255.0}, "handle_right": {"X": 0.5, "Y": 0.0}, "handle_left": {"X": 0.5, "Y": 1.0}, "handle_type": 0, "interpolation": 0}]}, "red": {"Points": [{"co": {"X": 1.0, "Y": 0.0}, "handle_right": {"X": 0.5, "Y": 0.0}, "handle_left": {"X": 0.5, "Y": 1.0}, "handle_type": 0, "interpolation": 0}]}}, "perspective_c4_y": {"Points": [{"co": {"X": 1.0, "Y": -1.0}, "interpolation": 2}]}}, "value": {"rotation": {"Points": [{"co": {"X": 1.0, "Y": 0.0}, "interpolation": 2}]}, "perspective_c4_x": {"Points": [{"co": {"X": 1.0, "Y": -1.0}, "interpolation": 2}]}, "location_y": {"Points": [{"co": {"X": 1.0, "Y": 0.0}, "interpolation": 2}]}, "effects": [], "position": 0, "channel_filter": {"Points": [{"co": {"X": 1.0, "Y": -1.0}, "interpolation": 2}]}, "file_id": "TFWOSRR9O1", "crop_width": {"Points": [{"co": {"X": 1.0, "Y": -1.0}, "interpolation": 2}]}, "perspective_c2_y": {"Points": [{"co": {"X": 1.0, "Y": -1.0}, "interpolation": 2}]}, "perspective_c1_y": {"Points": [{"co": {"X": 1.0, "Y": -1.0}, "interpolation": 2}]}, "volume": {"Points": [{"co": {"X": 1.0, "Y": 1.0}, "interpolation": 2}]}, "has_video": {"Points": [{"co": {"X": 1.0, "Y": -1.0}, "interpolation": 2}]}, "location_x": {"Points": [{"co": {"X": 1.0, "Y": 0.0}, "interpolation": 2}]}, "perspective_c1_x": {"Points": [{"co": {"X": 1.0, "Y": -1.0}, "interpolation": 2}]}, "start": 1.37, "layer": 0, "scale_y": {"Points": [{"co": {"X": 1.0, "Y": 1.0}, "interpolation": 2}]}, "crop_height": {"Points": [{"co": {"X": 1.0, "Y": -1.0}, "interpolation": 2}]}, "crop_x": {"Points": [{"co": {"X": 1.0, "Y": 0.0}, "interpolation": 2}]}, "perspective_c3_y": {"Points": [{"co": {"X": 1.0, "Y": -1.0}, "interpolation": 2}]}, "shear_x": {"Points": [{"co": {"X": 1.0, "Y": 0.0}, "interpolation": 2}]}, "id": "AFAP84VNLK", "shear_y": {"Points": [{"co": {"X": 1.0, "Y": 0.0}, "interpolation": 2}]}, "has_audio": {"Points": [{"co": {"X": 1.0, "Y": -1.0}, "interpolation": 2}]}, "scale_x": {"Points": [{"co": {"X": 1.0, "Y": 1.0}, "interpolation": 2}]}, "end": 68.45833333333333, "gravity": 4, "anchor": 0, "wave_color": {"alpha": {"Points": [{"co": {"X": 1.0, "Y": 255.0}, "handle_right": {"X": 0.5, "Y": 0.0}, "handle_left": {"X": 0.5, "Y": 1.0}, "handle_type": 0, "interpolation": 0}]}, "green": {"Points": [{"co": {"X": 1.0, "Y": 123.0}, "handle_right": {"X": 0.5, "Y": 0.0}, "handle_left": {"X": 0.5, "Y": 1.0}, "handle_type": 0, "interpolation": 0}]}, "blue": {"Points": [{"co": {"X": 1.0, "Y": 255.0}, "handle_right": {"X": 0.5, "Y": 0.0}, "handle_left": {"X": 0.5, "Y": 1.0}, "handle_type": 0, "interpolation": 0}]}, "red": {"Points": [{"co": {"X": 1.0, "Y": 0.0}, "handle_right": {"X": 0.5, "Y": 0.0}, "handle_left": {"X": 0.5, "Y": 1.0}, "handle_type": 0, "interpolation": 0}]}}, "display": 0, "duration": 68.0, "perspective_c2_x": {"Points": [{"co": {"X": 1.0, "Y": -1.0}, "interpolation": 2}]}, "scale": 1, "alpha": {"Points": [{"co": {"X": 1.0, "Y": 1.0}, "interpolation": 2}]}, "image": "/Users/andreasziegler/.openshot_qt/thumbnail/AFAP84VNLK-22.png", "perspective_c3_x": {"Points": [{"co": {"X": 1.0, "Y": -1.0}, "interpolation": 2}]}, "time": {"Points": [{"co": {"X": 34.0, "Y": 34.0}, "interpolation": 1}, {"co": {"X": 1643.0, "Y": 6470.0}, "interpolation": 1}]}, "crop_y": {"Points": [{"co": {"X": 1.0, "Y": 0.0}, "interpolation": 2}]}, "title": "exp.mp4", "channel_mapping": {"Points": [{"co": {"X": 1.0, "Y": -1.0}, "interpolation": 2}]}, "waveform": false, "perspective_c4_y": {"Points": [{"co": {"X": 1.0, "Y": -1.0}, "interpolation": 2}]}}, "partial": false}, {"type": "insert", "key": ["files"], "old_values": [{"path": "/Volumes/Data/MRfDE/presentations/Final/videos/exp.mp4", "channels": 0, "id": "TFWOSRR9O1", "audio_stream_index": -1, "audio_bit_rate": 0, "type": "FFmpegReader", "video_bit_rate": 281441, "has_video": true, "display_ratio": {"den": 231, "num": 314}, "height": 924, "fps": {"den": 1, "num": 15}, "pixel_format": 5, "channel_layout": 4, "video_length": "4119", "top_field_first": true, "has_audio": false, "video_timebase": {"den": 1500, "num": 1}, "width": 1256, "interlaced_frame": false, "audio_timebase": {"den": 1, "num": 1}, "has_single_image": false, "pixel_ratio": {"den": 1, "num": 1}, "sample_rate": 0, "video_stream_index": 0, "acodec": "", "vcodec": "h264", "duration": 274.6000061035156, "media_type": "video", "file_size": "9660493"}], "value": {"path": "/Users/andreasziegler/.openshot_qt/assets/TitleFileName-1.svg", "channels": 0, "id": "39OGACXNK6", "audio_bit_rate": 0, "type": "QtImageReader", "has_video": true, "display_ratio": {"den": 9, "num": 16}, "height": 1080, "fps": {"den": 1, "num": 30}, "pixel_format": -1, "channel_layout": 4, "video_stream_index": -1, "video_length": "2592000", "top_field_first": true, "has_audio": false, "width": 1920, "video_timebase": {"den": 30, "num": 1}, "interlaced_frame": false, "audio_timebase": {"den": 1, "num": 1}, "has_single_image": true, "media_type": "image", "pixel_ratio": {"den": 1, "num": 1}, "sample_rate": 0, "video_bit_rate": 0, "acodec": "", "vcodec": "", "duration": 86400.0, "audio_stream_index": -1, "file_size": "8294400"}, "partial": false}, {"type": "insert", "key": ["clips"], "old_values": [{"rotation": {"Points": [{"co": {"X": 1.0, "Y": 0.0}, "interpolation": 2}]}, "perspective_c4_x": {"Points": [{"co": {"X": 1.0, "Y": -1.0}, "interpolation": 2}]}, "location_y": {"Points": [{"co": {"X": 1.0, "Y": 0.0}, "interpolation": 2}]}, "effects": [], "position": 0, "channel_filter": {"Points": [{"co": {"X": 1.0, "Y": -1.0}, "interpolation": 2}]}, "file_id": "TFWOSRR9O1", "has_audio": {"Points": [{"co": {"X": 1.0, "Y": -1.0}, "interpolation": 2}]}, "crop_width": {"Points": [{"co": {"X": 1.0, "Y": -1.0}, "interpolation": 2}]}, "perspective_c2_y": {"Points": [{"co": {"X": 1.0, "Y": -1.0}, "interpolation": 2}]}, "perspective_c1_y": {"Points": [{"co": {"X": 1.0, "Y": -1.0}, "interpolation": 2}]}, "volume": {"Points": [{"co": {"X": 1.0, "Y": 1.0}, "interpolation": 2}]}, "has_video": {"Points": [{"co": {"X": 1.0, "Y": -1.0}, "interpolation": 2}]}, "perspective_c1_x": {"Points": [{"co": {"X": 1.0, "Y": -1.0}, "interpolation": 2}]}, "location_x": {"Points": [{"co": {"X": 1.0, "Y": 0.0}, "interpolation": 2}]}, "layer": 0, "crop_x": {"Points": [{"co": {"X": 1.0, "Y": 0.0}, "interpolation": 2}]}, "perspective_c3_y": {"Points": [{"co": {"X": 1.0, "Y": -1.0}, "interpolation": 2}]}, "shear_x": {"Points": [{"co": {"X": 1.0, "Y": 0.0}, "interpolation": 2}]}, "id": "AFAP84VNLK", "waveform": false, "shear_y": {"Points": [{"co": {"X": 1.0, "Y": 0.0}, "interpolation": 2}]}, "scale_y": {"Points": [{"co": {"X": 1.0, "Y": 1.0}, "interpolation": 2}]}, "crop_height": {"Points": [{"co": {"X": 1.0, "Y": -1.0}, "interpolation": 2}]}, "end": 68.45833333333333, "start": 1.37, "image": "/Users/andreasziegler/.openshot_qt/thumbnail/AFAP84VNLK-22.png", "crop_y": {"Points": [{"co": {"X": 1.0, "Y": 0.0}, "interpolation": 2}]}, "gravity": 4, "anchor": 0, "duration": 68.0, "perspective_c2_x": {"Points": [{"co": {"X": 1.0, "Y": -1.0}, "interpolation": 2}]}, "scale": 1, "alpha": {"Points": [{"co": {"X": 1.0, "Y": 1.0}, "interpolation": 2}]}, "title": "exp.mp4", "perspective_c3_x": {"Points": [{"co": {"X": 1.0, "Y": -1.0}, "interpolation": 2}]}, "time": {"Points": [{"co": {"X": 34.0, "Y": 34.0}, "interpolation": 1}, {"co": {"X": 1643.0, "Y": 6470.0}, "interpolation": 1}]}, "scale_x": {"Points": [{"co": {"X": 1.0, "Y": 1.0}, "interpolation": 2}]}, "reader": {"path": "/Volumes/Data/MRfDE/presentations/Final/videos/exp.mp4", "channels": 0, "audio_bit_rate": 0, "type": "FFmpegReader", "video_bit_rate": 281441, "has_video": true, "display_ratio": {"den": 231, "num": 314}, "height": 924, "fps": {"den": 1, "num": 15}, "pixel_format": 5, "channel_layout": 4, "video_length": "4119", "top_field_first": true, "has_audio": false, "video_timebase": {"den": 1500, "num": 1}, "width": 1256, "interlaced_frame": false, "audio_timebase": {"den": 1, "num": 1}, "has_single_image": false, "pixel_ratio": {"den": 1, "num": 1}, "sample_rate": 0, "video_stream_index": 0, "acodec": "", "vcodec": "h264", "duration": 274.6000061035156, "audio_stream_index": -1, "file_size": "9660493"}, "display": 0, "channel_mapping": {"Points": [{"co": {"X": 1.0, "Y": -1.0}, "interpolation": 2}]}, "wave_color": {"green": {"Points": [{"co": {"X": 1.0, "Y": 123.0}, "handle_right": {"X": 0.5, "Y": 0.0}, "handle_left": {"X": 0.5, "Y": 1.0}, "handle_type": 0, "interpolation": 0}]}, "red": {"Points": [{"co": {"X": 1.0, "Y": 0.0}, "handle_right": {"X": 0.5, "Y": 0.0}, "handle_left": {"X": 0.5, "Y": 1.0}, "handle_type": 0, "interpolation": 0}]}, "blue": {"Points": [{"co": {"X": 1.0, "Y": 255.0}, "handle_right": {"X": 0.5, "Y": 0.0}, "handle_left": {"X": 0.5, "Y": 1.0}, "handle_type": 0, "interpolation": 0}]}, "alpha": {"Points": [{"co": {"X": 1.0, "Y": 255.0}, "handle_right": {"X": 0.5, "Y": 0.0}, "handle_left": {"X": 0.5, "Y": 1.0}, "handle_type": 0, "interpolation": 0}]}}, "perspective_c4_y": {"Points": [{"co": {"X": 1.0, "Y": -1.0}, "interpolation": 2}]}}], "value": {"rotation": {"Points": [{"co": {"X": 1.0, "Y": 0.0}, "interpolation": 2}]}, "perspective_c4_x": {"Points": [{"co": {"X": 1.0, "Y": -1.0}, "interpolation": 2}]}, "location_y": {"Points": [{"co": {"X": 1.0, "Y": 0.0}, "interpolation": 2}]}, "effects": [], "position": 0, "channel_filter": {"Points": [{"co": {"X": 1.0, "Y": -1.0}, "interpolation": 2}]}, "file_id": "39OGACXNK6", "crop_width": {"Points": [{"co": {"X": 1.0, "Y": -1.0}, "interpolation": 2}]}, "perspective_c2_y": {"Points": [{"co": {"X": 1.0, "Y": -1.0}, "interpolation": 2}]}, "perspective_c1_y": {"Points": [{"co": {"X": 1.0, "Y": -1.0}, "interpolation": 2}]}, "volume": {"Points": [{"co": {"X": 1.0, "Y": 1.0}, "interpolation": 2}]}, "has_video": {"Points": [{"co": {"X": 1.0, "Y": -1.0}, "interpolation": 2}]}, "location_x": {"Points": [{"co": {"X": 1.0, "Y": 0.0}, "interpolation": 2}]}, "perspective_c1_x": {"Points": [{"co": {"X": 1.0, "Y": -1.0}, "interpolation": 2}]}, "scale_x": {"Points": [{"co": {"X": 1.0, "Y": 1.0}, "interpolation": 2}]}, "start": 0, "layer": 1, "scale_y": {"Points": [{"co": {"X": 1.0, "Y": 1.0}, "interpolation": 2}]}, "crop_x": {"Points": [{"co": {"X": 1.0, "Y": 0.0}, "interpolation": 2}]}, "perspective_c3_y": {"Points": [{"co": {"X": 1.0, "Y": -1.0}, "interpolation": 2}]}, "shear_x": {"Points": [{"co": {"X": 1.0, "Y": 0.0}, "interpolation": 2}]}, "id": "0LO9VIS5AD", "shear_y": {"Points": [{"co": {"X": 1.0, "Y": 0.0}, "interpolation": 2}]}, "has_audio": {"Points": [{"co": {"X": 1.0, "Y": -1.0}, "interpolation": 2}]}, "crop_height": {"Points": [{"co": {"X": 1.0, "Y": -1.0}, "interpolation": 2}]}, "end": 67.25, "gravity": 4, "anchor": 0, "wave_color": {"green": {"Points": [{"co": {"X": 1.0, "Y": 123.0}, "handle_right": {"X": 0.5, "Y": 0.0}, "handle_left": {"X": 0.5, "Y": 1.0}, "handle_type": 0, "interpolation": 0}]}, "red": {"Points": [{"co": {"X": 1.0, "Y": 0.0}, "handle_right": {"X": 0.5, "Y": 0.0}, "handle_left": {"X": 0.5, "Y": 1.0}, "handle_type": 0, "interpolation": 0}]}, "blue": {"Points": [{"co": {"X": 1.0, "Y": 255.0}, "handle_right": {"X": 0.5, "Y": 0.0}, "handle_left": {"X": 0.5, "Y": 1.0}, "handle_type": 0, "interpolation": 0}]}, "alpha": {"Points": [{"co": {"X": 1.0, "Y": 255.0}, "handle_right": {"X": 0.5, "Y": 0.0}, "handle_left": {"X": 0.5, "Y": 1.0}, "handle_type": 0, "interpolation": 0}]}}, "display": 0, "duration": 86400.0, "perspective_c2_x": {"Points": [{"co": {"X": 1.0, "Y": -1.0}, "interpolation": 2}]}, "scale": 1, "alpha": {"Points": [{"co": {"X": 1.0, "Y": 1.0}, "interpolation": 2}]}, "image": "/Users/andreasziegler/.openshot_qt/thumbnail/39OGACXNK6.png", "perspective_c3_x": {"Points": [{"co": {"X": 1.0, "Y": -1.0}, "interpolation": 2}]}, "time": {"Points": [{"co": {"X": 1.0, "Y": 1.0}, "interpolation": 2}]}, "crop_y": {"Points": [{"co": {"X": 1.0, "Y": 0.0}, "interpolation": 2}]}, "reader": {"path": "/Users/andreasziegler/.openshot_qt/assets/TitleFileName-1.svg", "channels": 0, "audio_bit_rate": 0, "type": "QtImageReader", "has_video": true, "display_ratio": {"den": 9, "num": 16}, "height": 1080, "fps": {"den": 1, "num": 30}, "pixel_format": -1, "channel_layout": 4, "video_stream_index": -1, "video_length": "2592000", "top_field_first": true, "has_audio": false, "video_timebase": {"den": 30, "num": 1}, "width": 1920, "interlaced_frame": false, "audio_timebase": {"den": 1, "num": 1}, "has_single_image": true, "pixel_ratio": {"den": 1, "num": 1}, "sample_rate": 0, "video_bit_rate": 0, "acodec": "", "vcodec": "", "duration": 86400.0, "audio_stream_index": -1, "file_size": "8294400"}, "title": "TitleFileName-1.svg", "channel_mapping": {"Points": [{"co": {"X": 1.0, "Y": -1.0}, "interpolation": 2}]}, "waveform": false, "perspective_c4_y": {"Points": [{"co": {"X": 1.0, "Y": -1.0}, "interpolation": 2}]}}, "partial": false}, {"type": "update", "key": ["clips", {"id": "0LO9VIS5AD"}], "old_values": {"rotation": {"Points": [{"co": {"X": 1.0, "Y": 0.0}, "interpolation": 2}]}, "perspective_c4_x": {"Points": [{"co": {"X": 1.0, "Y": -1.0}, "interpolation": 2}]}, "location_y": {"Points": [{"co": {"X": 1.0, "Y": 0.0}, "interpolation": 2}]}, "effects": [], "position": 13.0, "channel_filter": {"Points": [{"co": {"X": 1.0, "Y": -1.0}, "interpolation": 2}]}, "file_id": "39OGACXNK6", "crop_width": {"Points": [{"co": {"X": 1.0, "Y": -1.0}, "interpolation": 2}]}, "perspective_c2_y": {"Points": [{"co": {"X": 1.0, "Y": -1.0}, "interpolation": 2}]}, "perspective_c1_y": {"Points": [{"co": {"X": 1.0, "Y": -1.0}, "interpolation": 2}]}, "volume": {"Points": [{"co": {"X": 1.0, "Y": 1.0}, "interpolation": 2}]}, "has_video": {"Points": [{"co": {"X": 1.0, "Y": -1.0}, "interpolation": 2}]}, "perspective_c1_x": {"Points": [{"co": {"X": 1.0, "Y": -1.0}, "interpolation": 2}]}, "wave_color": {"alpha": {"Points": [{"co": {"X": 1.0, "Y": 255.0}, "handle_right": {"X": 0.5, "Y": 0.0}, "handle_left": {"X": 0.5, "Y": 1.0}, "handle_type": 0, "interpolation": 0}]}, "green": {"Points": [{"co": {"X": 1.0, "Y": 123.0}, "handle_right": {"X": 0.5, "Y": 0.0}, "handle_left": {"X": 0.5, "Y": 1.0}, "handle_type": 0, "interpolation": 0}]}, "blue": {"Points": [{"co": {"X": 1.0, "Y": 255.0}, "handle_right": {"X": 0.5, "Y": 0.0}, "handle_left": {"X": 0.5, "Y": 1.0}, "handle_type": 0, "interpolation": 0}]}, "red": {"Points": [{"co": {"X": 1.0, "Y": 0.0}, "handle_right": {"X": 0.5, "Y": 0.0}, "handle_left": {"X": 0.5, "Y": 1.0}, "handle_type": 0, "interpolation": 0}]}}, "location_x": {"Points": [{"co": {"X": 1.0, "Y": 0.0}, "interpolation": 2}]}, "layer": 1, "title": "TitleFileName-1.svg", "scale_y": {"Points": [{"co": {"X": 1.0, "Y": 1.0}, "interpolation": 2}]}, "crop_x": {"Points": [{"co": {"X": 1.0, "Y": 0.0}, "interpolation": 2}]}, "perspective_c3_y": {"Points": [{"co": {"X": 1.0, "Y": -1.0}, "interpolation": 2}]}, "shear_x": {"Points": [{"co": {"X": 1.0, "Y": 0.0}, "interpolation": 2}]}, "id": "0LO9VIS5AD", "shear_y": {"Points": [{"co": {"X": 1.0, "Y": 0.0}, "interpolation": 2}]}, "has_audio": {"Points": [{"co": {"X": 1.0, "Y": -1.0}, "interpolation": 2}]}, "crop_height": {"Points": [{"co": {"X": 1.0, "Y": -1.0}, "interpolation": 2}]}, "end": 10.0, "start": 0.0, "crop_y": {"Points": [{"co": {"X": 1.0, "Y": 0.0}, "interpolation": 2}]}, "gravity": 4, "anchor": 0, "duration": 86400.0, "perspective_c2_x": {"Points": [{"co": {"X": 1.0, "Y": -1.0}, "interpolation": 2}]}, "scale": 1, "alpha": {"Points": [{"co": {"X": 1.0, "Y": 1.0}, "interpolation": 2}]}, "image": "/Users/andreasziegler/.openshot_qt/thumbnail/39OGACXNK6.png", "perspective_c3_x": {"Points": [{"co": {"X": 1.0, "Y": -1.0}, "interpolation": 2}]}, "time": {"Points": [{"co": {"X": 1.0, "Y": 1.0}, "interpolation": 2}]}, "scale_x": {"Points": [{"co": {"X": 1.0, "Y": 1.0}, "interpolation": 2}]}, "reader": {"path": "/Users/andreasziegler/.openshot_qt/assets/TitleFileName-1.svg", "channels": 0, "audio_bit_rate": 0, "type": "QtImageReader", "video_bit_rate": 0, "has_video": true, "display_ratio": {"den": 9, "num": 16}, "height": 1080, "fps": {"den": 1, "num": 30}, "pixel_format": -1, "channel_layout": 4, "video_length": "2592000", "top_field_first": true, "has_audio": false, "video_timebase": {"den": 30, "num": 1}, "width": 1920, "interlaced_frame": false, "audio_timebase": {"den": 1, "num": 1}, "has_single_image": true, "pixel_ratio": {"den": 1, "num": 1}, "sample_rate": 0, "video_stream_index": -1, "acodec": "", "vcodec": "", "duration": 86400.0, "audio_stream_index": -1, "file_size": "8294400"}, "display": 0, "channel_mapping": {"Points": [{"co": {"X": 1.0, "Y": -1.0}, "interpolation": 2}]}, "waveform": false, "perspective_c4_y": {"Points": [{"co": {"X": 1.0, "Y": -1.0}, "interpolation": 2}]}}, "value": {"image": "/Users/andreasziegler/.openshot_qt/thumbnail/39OGACXNK6.png", "id": "0LO9VIS5AD", "position": 0, "layer": 1, "start": 0, "end": 10}, "partial": false}, {"type": "update", "key": ["clips", {"id": "0LO9VIS5AD"}], "old_values": {"rotation": {"Points": [{"co": {"X": 1.0, "Y": 0.0}, "interpolation": 2}]}, "perspective_c4_x": {"Points": [{"co": {"X": 1.0, "Y": -1.0}, "interpolation": 2}]}, "location_y": {"Points": [{"co": {"X": 1.0, "Y": 0.0}, "interpolation": 2}]}, "effects": [], "position": 0, "channel_filter": {"Points": [{"co": {"X": 1.0, "Y": -1.0}, "interpolation": 2}]}, "file_id": "39OGACXNK6", "image": "/Users/andreasziegler/.openshot_qt/thumbnail/39OGACXNK6.png", "crop_width": {"Points": [{"co": {"X": 1.0, "Y": -1.0}, "interpolation": 2}]}, "perspective_c2_y": {"Points": [{"co": {"X": 1.0, "Y": -1.0}, "interpolation": 2}]}, "perspective_c1_y": {"Points": [{"co": {"X": 1.0, "Y": -1.0}, "interpolation": 2}]}, "volume": {"Points": [{"co": {"X": 1.0, "Y": 1.0}, "interpolation": 2}]}, "has_video": {"Points": [{"co": {"X": 1.0, "Y": -1.0}, "interpolation": 2}]}, "perspective_c1_x": {"Points": [{"co": {"X": 1.0, "Y": -1.0}, "interpolation": 2}]}, "wave_color": {"alpha": {"Points": [{"co": {"X": 1.0, "Y": 255.0}, "handle_right": {"X": 0.5, "Y": 0.0}, "handle_left": {"X": 0.5, "Y": 1.0}, "handle_type": 0, "interpolation": 0}]}, "green": {"Points": [{"co": {"X": 1.0, "Y": 123.0}, "handle_right": {"X": 0.5, "Y": 0.0}, "handle_left": {"X": 0.5, "Y": 1.0}, "handle_type": 0, "interpolation": 0}]}, "blue": {"Points": [{"co": {"X": 1.0, "Y": 255.0}, "handle_right": {"X": 0.5, "Y": 0.0}, "handle_left": {"X": 0.5, "Y": 1.0}, "handle_type": 0, "interpolation": 0}]}, "red": {"Points": [{"co": {"X": 1.0, "Y": 0.0}, "handle_right": {"X": 0.5, "Y": 0.0}, "handle_left": {"X": 0.5, "Y": 1.0}, "handle_type": 0, "interpolation": 0}]}}, "start": 0, "layer": 1, "title": "TitleFileName-1.svg", "crop_x": {"Points": [{"co": {"X": 1.0, "Y": 0.0}, "interpolation": 2}]}, "perspective_c3_y": {"Points": [{"co": {"X": 1.0, "Y": -1.0}, "interpolation": 2}]}, "shear_x": {"Points": [{"co": {"X": 1.0, "Y": 0.0}, "interpolation": 2}]}, "id": "0LO9VIS5AD", "shear_y": {"Points": [{"co": {"X": 1.0, "Y": 0.0}, "interpolation": 2}]}, "has_audio": {"Points": [{"co": {"X": 1.0, "Y": -1.0}, "interpolation": 2}]}, "crop_height": {"Points": [{"co": {"X": 1.0, "Y": -1.0}, "interpolation": 2}]}, "end": 10, "waveform": false, "crop_y": {"Points": [{"co": {"X": 1.0, "Y": 0.0}, "interpolation": 2}]}, "gravity": 4, "time": {"Points": [{"co": {"X": 1.0, "Y": 1.0}, "interpolation": 2}]}, "duration": 86400.0, "perspective_c2_x": {"Points": [{"co": {"X": 1.0, "Y": -1.0}, "interpolation": 2}]}, "scale": 1, "alpha": {"Points": [{"co": {"X": 1.0, "Y": 1.0}, "interpolation": 2}]}, "scale_y": {"Points": [{"co": {"X": 1.0, "Y": 1.0}, "interpolation": 2}]}, "perspective_c3_x": {"Points": [{"co": {"X": 1.0, "Y": -1.0}, "interpolation": 2}]}, "location_x": {"Points": [{"co": {"X": 1.0, "Y": 0.0}, "interpolation": 2}]}, "scale_x": {"Points": [{"co": {"X": 1.0, "Y": 1.0}, "interpolation": 2}]}, "reader": {"path": "/Users/andreasziegler/.openshot_qt/assets/TitleFileName-1.svg", "channels": 0, "audio_bit_rate": 0, "type": "QtImageReader", "video_bit_rate": 0, "has_video": true, "display_ratio": {"den": 9, "num": 16}, "height": 1080, "fps": {"den": 1, "num": 30}, "pixel_format": -1, "channel_layout": 4, "video_length": "2592000", "top_field_first": true, "has_audio": false, "video_timebase": {"den": 30, "num": 1}, "width": 1920, "interlaced_frame": false, "audio_timebase": {"den": 1, "num": 1}, "has_single_image": true, "pixel_ratio": {"den": 1, "num": 1}, "sample_rate": 0, "video_stream_index": -1, "acodec": "", "vcodec": "", "duration": 86400.0, "audio_stream_index": -1, "file_size": "8294400"}, "display": 0, "channel_mapping": {"Points": [{"co": {"X": 1.0, "Y": -1.0}, "interpolation": 2}]}, "anchor": 0, "perspective_c4_y": {"Points": [{"co": {"X": 1.0, "Y": -1.0}, "interpolation": 2}]}}, "value": {"image": "/Users/andreasziegler/.openshot_qt/thumbnail/39OGACXNK6.png", "id": "0LO9VIS5AD", "position": 0, "layer": 1, "start": 0, "end": 10}, "partial": false}, {"type": "update", "key": ["clips", {"id": "0LO9VIS5AD"}], "old_values": {"rotation": {"Points": [{"co": {"X": 1.0, "Y": 0.0}, "interpolation": 2}]}, "perspective_c4_x": {"Points": [{"co": {"X": 1.0, "Y": -1.0}, "interpolation": 2}]}, "location_y": {"Points": [{"co": {"X": 1.0, "Y": 0.0}, "interpolation": 2}]}, "effects": [], "position": 0, "channel_filter": {"Points": [{"co": {"X": 1.0, "Y": -1.0}, "interpolation": 2}]}, "file_id": "39OGACXNK6", "image": "/Users/andreasziegler/.openshot_qt/thumbnail/39OGACXNK6.png", "crop_width": {"Points": [{"co": {"X": 1.0, "Y": -1.0}, "interpolation": 2}]}, "perspective_c2_y": {"Points": [{"co": {"X": 1.0, "Y": -1.0}, "interpolation": 2}]}, "perspective_c1_y": {"Points": [{"co": {"X": 1.0, "Y": -1.0}, "interpolation": 2}]}, "volume": {"Points": [{"co": {"X": 1.0, "Y": 1.0}, "interpolation": 2}]}, "has_video": {"Points": [{"co": {"X": 1.0, "Y": -1.0}, "interpolation": 2}]}, "perspective_c1_x": {"Points": [{"co": {"X": 1.0, "Y": -1.0}, "interpolation": 2}]}, "wave_color": {"alpha": {"Points": [{"co": {"X": 1.0, "Y": 255.0}, "handle_right": {"X": 0.5, "Y": 0.0}, "handle_left": {"X": 0.5, "Y": 1.0}, "handle_type": 0, "interpolation": 0}]}, "green": {"Points": [{"co": {"X": 1.0, "Y": 123.0}, "handle_right": {"X": 0.5, "Y": 0.0}, "handle_left": {"X": 0.5, "Y": 1.0}, "handle_type": 0, "interpolation": 0}]}, "blue": {"Points": [{"co": {"X": 1.0, "Y": 255.0}, "handle_right": {"X": 0.5, "Y": 0.0}, "handle_left": {"X": 0.5, "Y": 1.0}, "handle_type": 0, "interpolation": 0}]}, "red": {"Points": [{"co": {"X": 1.0, "Y": 0.0}, "handle_right": {"X": 0.5, "Y": 0.0}, "handle_left": {"X": 0.5, "Y": 1.0}, "handle_type": 0, "interpolation": 0}]}}, "start": 0, "layer": 1, "title": "TitleFileName-1.svg", "crop_x": {"Points": [{"co": {"X": 1.0, "Y": 0.0}, "interpolation": 2}]}, "perspective_c3_y": {"Points": [{"co": {"X": 1.0, "Y": -1.0}, "interpolation": 2}]}, "shear_x": {"Points": [{"co": {"X": 1.0, "Y": 0.0}, "interpolation": 2}]}, "id": "0LO9VIS5AD", "shear_y": {"Points": [{"co": {"X": 1.0, "Y": 0.0}, "interpolation": 2}]}, "has_audio": {"Points": [{"co": {"X": 1.0, "Y": -1.0}, "interpolation": 2}]}, "crop_height": {"Points": [{"co": {"X": 1.0, "Y": -1.0}, "interpolation": 2}]}, "end": 10, "waveform": false, "crop_y": {"Points": [{"co": {"X": 1.0, "Y": 0.0}, "interpolation": 2}]}, "gravity": 4, "time": {"Points": [{"co": {"X": 1.0, "Y": 1.0}, "interpolation": 2}]}, "duration": 86400.0, "perspective_c2_x": {"Points": [{"co": {"X": 1.0, "Y": -1.0}, "interpolation": 2}]}, "scale": 1, "alpha": {"Points": [{"co": {"X": 1.0, "Y": 1.0}, "interpolation": 2}]}, "scale_y": {"Points": [{"co": {"X": 1.0, "Y": 1.0}, "interpolation": 2}]}, "perspective_c3_x": {"Points": [{"co": {"X": 1.0, "Y": -1.0}, "interpolation": 2}]}, "location_x": {"Points": [{"co": {"X": 1.0, "Y": 0.0}, "interpolation": 2}]}, "scale_x": {"Points": [{"co": {"X": 1.0, "Y": 1.0}, "interpolation": 2}]}, "reader": {"path": "/Users/andreasziegler/.openshot_qt/assets/TitleFileName-1.svg", "channels": 0, "audio_bit_rate": 0, "type": "QtImageReader", "video_bit_rate": 0, "has_video": true, "display_ratio": {"den": 9, "num": 16}, "height": 1080, "fps": {"den": 1, "num": 30}, "pixel_format": -1, "channel_layout": 4, "video_length": "2592000", "top_field_first": true, "has_audio": false, "video_timebase": {"den": 30, "num": 1}, "width": 1920, "interlaced_frame": false, "audio_timebase": {"den": 1, "num": 1}, "has_single_image": true, "pixel_ratio": {"den": 1, "num": 1}, "sample_rate": 0, "video_stream_index": -1, "acodec": "", "vcodec": "", "duration": 86400.0, "audio_stream_index": -1, "file_size": "8294400"}, "display": 0, "channel_mapping": {"Points": [{"co": {"X": 1.0, "Y": -1.0}, "interpolation": 2}]}, "anchor": 0, "perspective_c4_y": {"Points": [{"co": {"X": 1.0, "Y": -1.0}, "interpolation": 2}]}}, "value": {"image": "/Users/andreasziegler/.openshot_qt/thumbnail/39OGACXNK6.png", "id": "0LO9VIS5AD", "position": 0, "layer": 1, "start": 0, "end": 68.25}, "partial": false}, {"type": "update", "key": ["clips", {"id": "0LO9VIS5AD"}], "old_values": {"rotation": {"Points": [{"co": {"X": 1.0, "Y": 0.0}, "interpolation": 2}]}, "perspective_c4_x": {"Points": [{"co": {"X": 1.0, "Y": -1.0}, "interpolation": 2}]}, "location_y": {"Points": [{"co": {"X": 1.0, "Y": 0.0}, "interpolation": 2}]}, "effects": [], "position": 0, "channel_filter": {"Points": [{"co": {"X": 1.0, "Y": -1.0}, "interpolation": 2}]}, "file_id": "39OGACXNK6", "image": "/Users/andreasziegler/.openshot_qt/thumbnail/39OGACXNK6.png", "crop_width": {"Points": [{"co": {"X": 1.0, "Y": -1.0}, "interpolation": 2}]}, "perspective_c2_y": {"Points": [{"co": {"X": 1.0, "Y": -1.0}, "interpolation": 2}]}, "perspective_c1_y": {"Points": [{"co": {"X": 1.0, "Y": -1.0}, "interpolation": 2}]}, "volume": {"Points": [{"co": {"X": 1.0, "Y": 1.0}, "interpolation": 2}]}, "has_video": {"Points": [{"co": {"X": 1.0, "Y": -1.0}, "interpolation": 2}]}, "perspective_c1_x": {"Points": [{"co": {"X": 1.0, "Y": -1.0}, "interpolation": 2}]}, "wave_color": {"alpha": {"Points": [{"co": {"X": 1.0, "Y": 255.0}, "handle_right": {"X": 0.5, "Y": 0.0}, "handle_left": {"X": 0.5, "Y": 1.0}, "handle_type": 0, "interpolation": 0}]}, "green": {"Points": [{"co": {"X": 1.0, "Y": 123.0}, "handle_right": {"X": 0.5, "Y": 0.0}, "handle_left": {"X": 0.5, "Y": 1.0}, "handle_type": 0, "interpolation": 0}]}, "blue": {"Points": [{"co": {"X": 1.0, "Y": 255.0}, "handle_right": {"X": 0.5, "Y": 0.0}, "handle_left": {"X": 0.5, "Y": 1.0}, "handle_type": 0, "interpolation": 0}]}, "red": {"Points": [{"co": {"X": 1.0, "Y": 0.0}, "handle_right": {"X": 0.5, "Y": 0.0}, "handle_left": {"X": 0.5, "Y": 1.0}, "handle_type": 0, "interpolation": 0}]}}, "start": 0, "layer": 1, "title": "TitleFileName-1.svg", "crop_x": {"Points": [{"co": {"X": 1.0, "Y": 0.0}, "interpolation": 2}]}, "perspective_c3_y": {"Points": [{"co": {"X": 1.0, "Y": -1.0}, "interpolation": 2}]}, "shear_x": {"Points": [{"co": {"X": 1.0, "Y": 0.0}, "interpolation": 2}]}, "id": "0LO9VIS5AD", "shear_y": {"Points": [{"co": {"X": 1.0, "Y": 0.0}, "interpolation": 2}]}, "has_audio": {"Points": [{"co": {"X": 1.0, "Y": -1.0}, "interpolation": 2}]}, "crop_height": {"Points": [{"co": {"X": 1.0, "Y": -1.0}, "interpolation": 2}]}, "end": 68.25, "waveform": false, "crop_y": {"Points": [{"co": {"X": 1.0, "Y": 0.0}, "interpolation": 2}]}, "gravity": 4, "time": {"Points": [{"co": {"X": 1.0, "Y": 1.0}, "interpolation": 2}]}, "duration": 86400.0, "perspective_c2_x": {"Points": [{"co": {"X": 1.0, "Y": -1.0}, "interpolation": 2}]}, "scale": 1, "alpha": {"Points": [{"co": {"X": 1.0, "Y": 1.0}, "interpolation": 2}]}, "scale_y": {"Points": [{"co": {"X": 1.0, "Y": 1.0}, "interpolation": 2}]}, "perspective_c3_x": {"Points": [{"co": {"X": 1.0, "Y": -1.0}, "interpolation": 2}]}, "location_x": {"Points": [{"co": {"X": 1.0, "Y": 0.0}, "interpolation": 2}]}, "scale_x": {"Points": [{"co": {"X": 1.0, "Y": 1.0}, "interpolation": 2}]}, "reader": {"path": "/Users/andreasziegler/.openshot_qt/assets/TitleFileName-1.svg", "channels": 0, "audio_bit_rate": 0, "type": "QtImageReader", "video_bit_rate": 0, "has_video": true, "display_ratio": {"den": 9, "num": 16}, "height": 1080, "fps": {"den": 1, "num": 30}, "pixel_format": -1, "channel_layout": 4, "video_length": "2592000", "top_field_first": true, "has_audio": false, "video_timebase": {"den": 30, "num": 1}, "width": 1920, "interlaced_frame": false, "audio_timebase": {"den": 1, "num": 1}, "has_single_image": true, "pixel_ratio": {"den": 1, "num": 1}, "sample_rate": 0, "video_stream_index": -1, "acodec": "", "vcodec": "", "duration": 86400.0, "audio_stream_index": -1, "file_size": "8294400"}, "display": 0, "channel_mapping": {"Points": [{"co": {"X": 1.0, "Y": -1.0}, "interpolation": 2}]}, "anchor": 0, "perspective_c4_y": {"Points": [{"co": {"X": 1.0, "Y": -1.0}, "interpolation": 2}]}}, "value": {"image": "/Users/andreasziegler/.openshot_qt/thumbnail/39OGACXNK6.png", "id": "0LO9VIS5AD", "position": 0, "layer": 1, "start": 0, "end": 67.75}, "partial": false}, {"type": "update", "key": ["clips", {"id": "0LO9VIS5AD"}], "old_values": {"rotation": {"Points": [{"co": {"X": 1.0, "Y": 0.0}, "interpolation": 2}]}, "perspective_c4_x": {"Points": [{"co": {"X": 1.0, "Y": -1.0}, "interpolation": 2}]}, "location_y": {"Points": [{"co": {"X": 1.0, "Y": 0.0}, "interpolation": 2}]}, "effects": [], "position": 0, "channel_filter": {"Points": [{"co": {"X": 1.0, "Y": -1.0}, "interpolation": 2}]}, "file_id": "39OGACXNK6", "image": "/Users/andreasziegler/.openshot_qt/thumbnail/39OGACXNK6.png", "crop_width": {"Points": [{"co": {"X": 1.0, "Y": -1.0}, "interpolation": 2}]}, "perspective_c2_y": {"Points": [{"co": {"X": 1.0, "Y": -1.0}, "interpolation": 2}]}, "perspective_c1_y": {"Points": [{"co": {"X": 1.0, "Y": -1.0}, "interpolation": 2}]}, "volume": {"Points": [{"co": {"X": 1.0, "Y": 1.0}, "interpolation": 2}]}, "has_video": {"Points": [{"co": {"X": 1.0, "Y": -1.0}, "interpolation": 2}]}, "perspective_c1_x": {"Points": [{"co": {"X": 1.0, "Y": -1.0}, "interpolation": 2}]}, "wave_color": {"alpha": {"Points": [{"co": {"X": 1.0, "Y": 255.0}, "handle_right": {"X": 0.5, "Y": 0.0}, "handle_left": {"X": 0.5, "Y": 1.0}, "handle_type": 0, "interpolation": 0}]}, "green": {"Points": [{"co": {"X": 1.0, "Y": 123.0}, "handle_right": {"X": 0.5, "Y": 0.0}, "handle_left": {"X": 0.5, "Y": 1.0}, "handle_type": 0, "interpolation": 0}]}, "blue": {"Points": [{"co": {"X": 1.0, "Y": 255.0}, "handle_right": {"X": 0.5, "Y": 0.0}, "handle_left": {"X": 0.5, "Y": 1.0}, "handle_type": 0, "interpolation": 0}]}, "red": {"Points": [{"co": {"X": 1.0, "Y": 0.0}, "handle_right": {"X": 0.5, "Y": 0.0}, "handle_left": {"X": 0.5, "Y": 1.0}, "handle_type": 0, "interpolation": 0}]}}, "start": 0, "layer": 1, "title": "TitleFileName-1.svg", "crop_x": {"Points": [{"co": {"X": 1.0, "Y": 0.0}, "interpolation": 2}]}, "perspective_c3_y": {"Points": [{"co": {"X": 1.0, "Y": -1.0}, "interpolation": 2}]}, "shear_x": {"Points": [{"co": {"X": 1.0, "Y": 0.0}, "interpolation": 2}]}, "id": "0LO9VIS5AD", "shear_y": {"Points": [{"co": {"X": 1.0, "Y": 0.0}, "interpolation": 2}]}, "has_audio": {"Points": [{"co": {"X": 1.0, "Y": -1.0}, "interpolation": 2}]}, "crop_height": {"Points": [{"co": {"X": 1.0, "Y": -1.0}, "interpolation": 2}]}, "end": 67.75, "waveform": false, "crop_y": {"Points": [{"co": {"X": 1.0, "Y": 0.0}, "interpolation": 2}]}, "gravity": 4, "time": {"Points": [{"co": {"X": 1.0, "Y": 1.0}, "interpolation": 2}]}, "duration": 86400.0, "perspective_c2_x": {"Points": [{"co": {"X": 1.0, "Y": -1.0}, "interpolation": 2}]}, "scale": 1, "alpha": {"Points": [{"co": {"X": 1.0, "Y": 1.0}, "interpolation": 2}]}, "scale_y": {"Points": [{"co": {"X": 1.0, "Y": 1.0}, "interpolation": 2}]}, "perspective_c3_x": {"Points": [{"co": {"X": 1.0, "Y": -1.0}, "interpolation": 2}]}, "location_x": {"Points": [{"co": {"X": 1.0, "Y": 0.0}, "interpolation": 2}]}, "scale_x": {"Points": [{"co": {"X": 1.0, "Y": 1.0}, "interpolation": 2}]}, "reader": {"path": "/Users/andreasziegler/.openshot_qt/assets/TitleFileName-1.svg", "channels": 0, "audio_bit_rate": 0, "type": "QtImageReader", "video_bit_rate": 0, "has_video": true, "display_ratio": {"den": 9, "num": 16}, "height": 1080, "fps": {"den": 1, "num": 30}, "pixel_format": -1, "channel_layout": 4, "video_length": "2592000", "top_field_first": true, "has_audio": false, "video_timebase": {"den": 30, "num": 1}, "width": 1920, "interlaced_frame": false, "audio_timebase": {"den": 1, "num": 1}, "has_single_image": true, "pixel_ratio": {"den": 1, "num": 1}, "sample_rate": 0, "video_stream_index": -1, "acodec": "", "vcodec": "", "duration": 86400.0, "audio_stream_index": -1, "file_size": "8294400"}, "display": 0, "channel_mapping": {"Points": [{"co": {"X": 1.0, "Y": -1.0}, "interpolation": 2}]}, "anchor": 0, "perspective_c4_y": {"Points": [{"co": {"X": 1.0, "Y": -1.0}, "interpolation": 2}]}}, "value": {"image": "/Users/andreasziegler/.openshot_qt/thumbnail/39OGACXNK6.png", "id": "0LO9VIS5AD", "position": 0, "layer": 1, "start": 0, "end": 67.25}, "partial": false}]}, "sample_rate": 44100, "files": [{"path": "exp.mp4", "channels": 0, "id": "TFWOSRR9O1", "audio_stream_index": -1, "audio_bit_rate": 0, "type": "FFmpegReader", "video_bit_rate": 281441, "has_video": true, "display_ratio": {"den": 231, "num": 314}, "height": 924, "interlaced_frame": false, "fps": {"den": 1, "num": 15}, "pixel_format": 5, "channel_layout": 4, "video_length": "4119", "top_field_first": true, "has_audio": false, "video_timebase": {"den": 1500, "num": 1}, "width": 1256, "duration": 274.6000061035156, "audio_timebase": {"den": 1, "num": 1}, "has_single_image": false, "pixel_ratio": {"den": 1, "num": 1}, "sample_rate": 0, "video_stream_index": 0, "acodec": "", "vcodec": "h264", "media_type": "video", "file_size": "9660493"}, {"path": "../../../../../../Users/andreasziegler/.openshot_qt/assets/TitleFileName-1.svg", "channels": 0, "id": "39OGACXNK6", "audio_stream_index": -1, "audio_bit_rate": 0, "type": "QtImageReader", "video_bit_rate": 0, "has_video": true, "display_ratio": {"den": 9, "num": 16}, "height": 1080, "interlaced_frame": false, "fps": {"den": 1, "num": 30}, "pixel_format": -1, "channel_layout": 4, "video_length": "2592000", "top_field_first": true, "has_audio": false, "video_timebase": {"den": 30, "num": 1}, "width": 1920, "duration": 86400.0, "audio_timebase": {"den": 1, "num": 1}, "has_single_image": true, "pixel_ratio": {"den": 1, "num": 1}, "sample_rate": 0, "video_stream_index": -1, "acodec": "", "vcodec": "", "media_type": "image", "file_size": "8294400"}], "tick_pixels": 100, "fps": {"den": 1, "num": 24}}